{"glyphs":{"0":{"ha":833,"x_min":24,"x_max":810,"o":"m 417 961 q 705 818 591 961 q 810 463 810 685 q 784 262 810 349 q 705 108 759 176 q 418 -35 591 -35 q 130 108 242 -35 q 49 264 74 178 q 24 470 24 350 q 130 818 24 688 q 417 961 243 958 m 417 746 q 355 724 386 746 q 306 668 323 703 q 263 464 263 585 q 306 254 263 336 q 355 197 323 219 q 417 176 386 176 q 479 198 448 176 q 528 254 511 220 q 571 461 571 337 q 528 668 571 587 q 480 724 510 703 q 417 746 450 745 z "},"1":{"ha":833,"x_min":193,"x_max":566,"o":"m 325 722 l 193 722 l 193 926 l 566 926 l 566 0 l 325 0 l 325 722 z "},"2":{"ha":833,"x_min":36,"x_max":779,"o":"m 476 203 l 779 203 l 779 0 l 36 0 l 271 246 q 464 481 388 368 q 520 640 520 565 q 489 725 520 690 q 412 760 457 760 q 341 729 368 760 q 313 647 313 697 q 317 608 313 633 l 52 608 q 100 793 53 704 q 229 923 146 880 q 411 965 309 965 q 673 867 574 965 q 770 631 770 773 q 737 483 770 551 q 632 349 704 416 l 476 203 z "},"3":{"ha":833,"x_min":37,"x_max":779,"o":"m 371 406 l 371 570 q 398 569 389 569 q 475 601 448 569 q 501 672 501 631 q 475 739 501 713 q 407 764 448 764 q 336 736 361 764 q 309 659 310 709 l 85 659 q 132 810 96 750 q 250 921 175 884 q 427 962 330 962 q 646 886 563 962 q 725 694 725 814 q 701 581 725 628 q 627 501 677 534 q 713 446 682 484 q 779 264 779 370 q 721 89 779 165 q 587 -9 671 24 q 416 -41 506 -41 q 85 140 191 -41 q 37 296 39 218 l 283 296 q 305 220 286 249 q 414 167 340 167 q 511 209 477 167 q 540 288 540 245 q 488 389 540 351 q 413 413 454 413 q 371 406 395 413 z "},"4":{"ha":833,"x_min":16,"x_max":799,"o":"m 686 375 l 799 375 l 799 190 l 686 190 l 686 0 l 464 0 l 464 190 l 16 190 l 16 345 l 372 926 l 686 926 l 686 375 m 464 375 l 464 732 l 246 375 l 464 375 z "},"5":{"ha":833,"x_min":64,"x_max":755,"o":"m 687 722 l 367 722 l 350 620 q 425 626 394 626 q 656 539 564 626 q 755 301 755 445 q 708 130 755 207 q 366 -30 610 -30 q 64 54 199 -30 l 100 279 q 353 172 227 172 q 475 225 431 172 q 507 311 507 262 q 433 434 507 390 q 300 467 380 467 q 125 428 212 467 l 205 926 l 687 926 l 687 722 z "},"6":{"ha":833,"x_min":24,"x_max":810,"o":"m 371 926 l 644 926 l 380 611 q 511 640 453 640 q 723 548 637 640 q 810 315 810 455 q 677 41 810 140 q 412 -37 572 -37 q 120 68 223 -37 q 24 302 24 167 q 62 475 24 381 q 164 654 99 569 l 371 926 m 412 458 q 303 413 348 458 q 258 305 258 368 q 303 197 258 242 q 412 153 348 153 q 519 197 475 153 q 564 304 564 243 q 520 413 564 368 q 412 458 476 457 z "},"7":{"ha":833,"x_min":62,"x_max":857,"o":"m 484 722 l 98 722 l 98 926 l 857 926 l 326 0 l 62 0 l 484 722 z "},"8":{"ha":833,"x_min":63,"x_max":770,"o":"m 247 488 q 159 545 190 511 q 101 692 101 606 q 130 802 101 749 q 418 951 209 951 q 558 928 493 951 q 663 864 623 905 q 732 691 732 794 q 667 538 732 593 q 581 488 639 515 q 690 427 654 459 q 770 250 770 355 q 648 39 770 118 q 418 -24 551 -24 q 231 15 319 -24 q 97 125 143 54 q 63 250 63 178 q 145 432 63 361 q 247 488 180 462 m 416 789 q 345 760 375 789 q 315 689 315 730 q 345 616 315 646 q 417 586 374 586 q 489 616 459 586 q 519 688 519 646 q 489 760 519 730 q 416 789 460 789 m 416 390 q 338 357 370 390 q 306 280 306 325 q 338 201 306 233 q 417 168 370 168 q 495 201 463 168 q 528 279 528 233 q 495 357 528 326 q 416 390 463 389 z "},"9":{"ha":833,"x_min":24,"x_max":810,"o":"m 463 0 l 190 0 l 454 315 q 323 286 382 286 q 111 378 197 286 q 24 610 24 470 q 157 884 24 785 q 422 963 262 963 q 714 857 611 963 q 810 623 810 759 q 772 451 810 545 q 670 271 735 357 l 463 0 m 423 774 q 315 729 360 774 q 271 623 271 684 q 315 513 271 558 q 424 468 359 468 q 532 513 487 468 q 576 621 576 557 q 532 729 576 684 q 423 774 488 773 z "}," ":{"ha":347,"x_min":0,"x_max":0,"o":""},"!":{"ha":472,"x_min":93,"x_max":380,"o":"m 237 262 q 338 220 296 262 q 380 118 380 178 q 338 16 380 58 q 237 -26 296 -26 q 135 16 176 -26 q 93 120 93 59 q 135 220 93 178 q 237 262 177 261 m 121 315 l 121 926 l 352 926 l 352 315 l 121 315 z "},"\"":{"ha":570,"x_min":57,"x_max":513,"o":"m 221 553 l 90 553 l 57 926 l 254 926 l 221 553 m 479 553 l 349 553 l 315 926 l 513 926 l 479 553 z "},"#":{"ha":833,"x_min":22,"x_max":812,"o":"m 779 414 l 779 254 l 632 254 l 598 0 l 415 0 l 449 254 l 330 254 l 296 0 l 115 0 l 149 254 l 22 254 l 22 414 l 169 414 l 184 532 l 58 532 l 58 691 l 204 691 l 235 926 l 416 926 l 385 691 l 505 691 l 535 926 l 718 926 l 687 691 l 812 691 l 812 532 l 667 532 l 652 414 l 779 414 m 484 532 l 365 532 l 350 414 l 469 414 l 484 532 z "},"$":{"ha":833,"x_min":79,"x_max":755,"o":"m 496 1072 l 496 924 q 720 852 633 911 l 629 675 q 473 735 549 735 q 395 713 425 735 q 368 665 368 692 q 427 593 368 624 q 526 559 439 587 q 690 469 631 523 q 755 298 755 409 q 690 106 755 183 q 496 2 636 42 l 496 -152 l 382 -152 l 382 -5 q 215 30 299 -1 q 79 107 130 61 l 180 292 q 404 190 294 190 q 492 222 459 190 q 517 278 517 248 q 460 350 517 322 q 367 381 450 355 q 205 460 261 414 q 132 635 132 522 q 164 773 132 708 q 251 878 196 838 q 382 924 302 915 l 382 1072 l 496 1072 z "},"%":{"ha":1244,"x_min":46,"x_max":1197,"o":"m 305 936 q 493 863 425 936 q 553 711 553 800 q 471 534 553 604 q 296 482 408 482 q 105 554 174 482 q 46 713 46 614 q 113 872 46 810 q 305 936 181 935 m 299 814 q 226 784 257 814 q 195 711 195 753 q 226 636 195 667 q 300 606 256 606 q 373 636 342 606 q 404 710 404 667 q 373 783 404 753 q 299 814 343 813 m 829 926 l 950 926 l 412 0 l 292 0 l 829 926 m 949 443 q 1137 370 1069 443 q 1197 218 1197 307 q 1115 41 1197 111 q 941 -11 1053 -11 q 749 61 818 -11 q 690 220 690 122 q 758 379 690 317 q 949 443 825 442 m 943 321 q 870 291 901 321 q 840 218 840 260 q 870 143 840 174 q 944 113 901 113 q 1017 143 987 113 q 1048 217 1048 174 q 1018 290 1048 260 q 943 321 987 320 z "},"&":{"ha":1050,"x_min":56,"x_max":1050,"o":"m 597 476 l 713 354 q 833 486 786 420 l 970 355 q 843 219 928 300 l 1050 0 l 750 0 l 669 85 q 351 -26 503 -26 q 192 12 265 -26 q 85 117 121 48 q 56 240 56 172 q 146 438 56 362 q 277 509 176 463 q 228 574 239 555 q 191 699 191 630 q 224 819 191 761 q 479 951 302 951 q 694 871 615 951 q 768 699 768 797 q 689 534 768 599 q 597 476 658 508 m 392 387 q 304 278 304 332 q 335 215 304 240 q 412 190 366 190 q 538 231 475 190 l 392 387 m 492 589 q 577 703 577 640 q 554 764 577 740 q 496 788 531 788 q 440 766 463 788 q 418 711 418 744 q 453 633 418 679 q 476 605 462 622 q 492 589 491 588 z "},"'":{"ha":311,"x_min":57,"x_max":254,"o":"m 221 553 l 90 553 l 57 926 l 254 926 l 221 553 z "},"(":{"ha":469,"x_min":93,"x_max":405,"o":"m 271 1057 l 405 981 q 263 406 263 738 q 302 83 263 241 q 405 -175 340 -76 l 271 -251 q 157 -19 193 -139 q 93 414 93 193 q 140 765 93 595 q 271 1057 187 935 z "},")":{"ha":469,"x_min":65,"x_max":377,"o":"m 199 -251 l 65 -175 q 207 400 207 68 q 168 723 207 564 q 65 980 130 881 l 199 1057 q 313 825 277 945 q 377 391 377 612 q 330 41 377 211 q 199 -251 283 -130 z "},"*":{"ha":833,"x_min":197,"x_max":637,"o":"m 362 1019 l 472 1019 l 450 851 l 604 923 l 637 819 l 471 787 l 587 664 l 498 600 l 418 748 l 336 600 l 247 664 l 363 787 l 197 819 l 231 923 l 383 850 l 362 1019 z "},"+":{"ha":833,"x_min":88,"x_max":745,"o":"m 88 542 l 338 542 l 338 791 l 496 791 l 496 542 l 745 542 l 745 385 l 496 385 l 496 134 l 338 134 l 338 385 l 88 385 l 88 542 z "},",":{"ha":421,"x_min":-12,"x_max":356,"o":"m 147 235 l 356 235 l 130 -172 l -12 -172 l 147 235 z "},"-":{"ha":352,"x_min":0,"x_max":352,"o":"m 0 421 l 352 421 l 352 236 l 0 236 l 0 421 z "},".":{"ha":421,"x_min":67,"x_max":355,"o":"m 211 262 q 313 220 271 262 q 355 118 355 178 q 313 16 355 58 q 211 -26 271 -26 q 109 16 151 -26 q 67 120 67 59 q 109 220 67 178 q 211 262 151 261 z "},"/":{"ha":688,"x_min":-1,"x_max":680,"o":"m 504 1019 l 680 1019 l 174 -213 l -1 -213 l 504 1019 z "},":":{"ha":421,"x_min":67,"x_max":355,"o":"m 211 262 q 313 220 271 262 q 355 118 355 178 q 313 16 355 58 q 211 -26 271 -26 q 109 16 151 -26 q 67 120 67 59 q 109 220 67 178 q 211 262 151 261 m 210 675 q 312 633 270 675 q 354 532 354 592 q 312 431 354 473 q 211 389 270 389 q 109 431 151 389 q 67 534 67 473 q 109 633 67 592 q 210 675 151 675 z "},";":{"ha":421,"x_min":-13,"x_max":387,"o":"m 146 235 l 355 235 l 130 -172 l -13 -172 l 146 235 m 243 675 q 345 633 302 675 q 387 532 387 592 q 345 431 387 473 q 243 389 302 389 q 142 431 183 389 q 100 534 100 473 q 141 633 100 592 q 243 675 183 675 z "},"<":{"ha":694,"x_min":46,"x_max":648,"o":"m 648 913 l 648 651 l 323 469 l 648 286 l 648 27 l 46 361 l 46 580 l 648 913 z "},"=":{"ha":833,"x_min":88,"x_max":745,"o":"m 88 665 l 745 665 l 745 507 l 88 507 l 88 665 m 88 419 l 745 419 l 745 262 l 88 262 l 88 419 z "},">":{"ha":694,"x_min":46,"x_max":648,"o":"m 46 27 l 46 288 l 370 471 l 47 653 l 46 913 l 648 579 l 648 360 l 46 27 z "},"?":{"ha":760,"x_min":46,"x_max":704,"o":"m 256 311 l 256 551 q 305 544 285 544 q 420 579 374 544 q 466 667 466 614 q 440 731 466 705 q 374 758 414 758 q 314 733 336 758 q 291 664 292 709 l 46 664 q 108 836 48 764 q 229 922 153 892 q 379 951 300 951 q 610 865 518 951 q 679 770 654 824 q 704 661 704 716 q 677 549 704 603 q 605 461 651 496 q 481 399 559 427 l 481 311 l 256 311 m 374 261 q 476 219 434 261 q 518 118 518 178 q 476 16 518 58 q 375 -26 434 -26 q 273 16 315 -26 q 231 119 231 58 q 273 219 231 178 q 374 261 315 260 z "},"@":{"ha":956,"x_min":-13,"x_max":968,"o":"m 737 696 l 700 391 q 696 331 696 361 q 712 307 696 307 q 741 315 725 307 q 805 372 781 334 q 848 524 848 439 q 747 752 848 662 q 498 842 646 842 q 227 730 336 842 q 119 461 119 621 q 214 204 119 311 q 508 84 320 84 q 638 98 583 84 q 775 151 693 111 q 789 157 778 152 q 800 163 794 160 l 844 51 q 820 39 828 43 q 665 -18 732 -3 q 509 -34 599 -34 q 231 33 348 -34 q 57 204 122 95 q -13 460 -13 321 q 55 712 -13 597 q 231 884 119 820 q 497 954 353 954 q 755 886 640 954 q 909 736 854 829 q 968 526 968 639 q 910 321 968 414 q 791 213 864 246 q 700 191 745 191 q 594 251 632 191 q 448 189 530 189 q 287 262 351 189 q 224 444 224 334 q 302 640 224 564 q 473 707 372 707 q 536 699 509 707 q 601 667 563 690 l 609 696 l 737 696 m 478 576 q 396 538 429 576 q 364 439 364 499 q 389 353 364 387 q 454 320 414 320 q 547 364 509 320 q 587 470 587 412 q 557 546 587 516 q 478 576 526 576 z "},"A":{"ha":986,"x_min":9,"x_max":977,"o":"m 660 161 l 328 161 l 264 0 l 9 0 l 366 926 l 628 926 l 977 0 l 720 0 l 660 161 m 595 345 l 495 640 l 394 345 l 595 345 z "},"B":{"ha":859,"x_min":97,"x_max":802,"o":"m 97 0 l 97 926 l 455 926 q 650 861 585 926 q 715 684 715 797 q 692 570 715 614 q 614 494 668 525 q 743 436 703 476 q 802 262 802 375 q 727 80 802 151 q 483 0 642 0 l 97 0 m 338 562 l 382 562 q 466 585 437 562 q 495 652 495 608 q 466 719 495 696 q 382 742 437 742 l 338 742 l 338 562 m 338 187 l 391 187 q 510 204 471 187 q 546 236 532 214 q 559 286 559 258 q 513 366 559 342 q 469 379 492 376 q 387 382 446 382 l 338 382 l 338 187 z "},"C":{"ha":819,"x_min":56,"x_max":764,"o":"m 764 899 l 764 610 q 555 712 681 712 q 372 635 446 712 q 307 457 307 567 q 389 270 307 338 q 555 208 462 208 q 764 305 671 208 l 764 20 q 638 -17 678 -8 q 548 -25 598 -25 q 303 39 420 -25 q 115 222 178 108 q 56 455 56 326 q 127 715 56 600 q 315 888 195 825 q 546 945 425 945 q 764 899 645 945 z "},"D":{"ha":965,"x_min":97,"x_max":909,"o":"m 97 0 l 97 926 l 452 926 q 757 803 626 926 q 871 640 831 734 q 909 463 909 553 q 834 215 909 332 q 639 42 760 99 q 452 0 549 0 l 97 0 m 338 203 l 393 203 q 507 222 460 203 q 590 281 554 240 q 657 463 657 356 q 590 645 657 570 q 507 704 554 686 q 393 722 460 722 l 338 722 l 338 203 z "},"E":{"ha":680,"x_min":97,"x_max":624,"o":"m 624 722 l 338 722 l 338 568 l 608 568 l 608 364 l 338 364 l 338 203 l 624 203 l 624 0 l 97 0 l 97 926 l 624 926 l 624 722 z "},"F":{"ha":674,"x_min":97,"x_max":627,"o":"m 627 722 l 338 722 l 338 568 l 602 568 l 602 364 l 338 364 l 338 0 l 97 0 l 97 926 l 627 926 l 627 722 z "},"G":{"ha":1080,"x_min":55,"x_max":1025,"o":"m 547 514 l 1025 514 q 977 229 1022 329 q 810 35 919 102 q 549 -33 700 -33 q 278 37 398 -33 q 103 232 161 104 q 55 458 55 337 q 117 712 55 595 q 298 895 180 834 q 558 956 415 956 q 808 892 706 956 q 975 695 910 828 l 747 601 q 547 747 684 747 q 374 663 440 747 q 307 458 307 578 q 389 233 307 321 q 554 167 452 167 q 711 235 658 167 q 745 327 736 267 l 547 327 l 547 514 z "},"H":{"ha":1023,"x_min":97,"x_max":926,"o":"m 338 568 l 685 568 l 685 926 l 926 926 l 926 0 l 685 0 l 685 381 l 338 381 l 338 0 l 97 0 l 97 926 l 338 926 l 338 568 z "},"I":{"ha":435,"x_min":97,"x_max":338,"o":"m 338 926 l 338 0 l 97 0 l 97 926 l 338 926 z "},"J":{"ha":650,"x_min":9,"x_max":553,"o":"m 553 926 l 553 286 q 530 141 553 191 q 404 12 488 57 q 251 -25 334 -25 q 9 112 102 -25 l 167 273 q 193 207 172 231 q 245 182 214 182 q 313 289 313 182 l 313 340 l 313 926 l 553 926 z "},"K":{"ha":972,"x_min":97,"x_max":962,"o":"m 338 544 l 631 926 l 928 926 l 561 488 l 962 0 l 650 0 l 338 401 l 338 0 l 97 0 l 97 926 l 338 926 l 338 544 z "},"L":{"ha":653,"x_min":97,"x_max":627,"o":"m 338 926 l 338 203 l 627 203 l 627 0 l 97 0 l 97 926 l 338 926 z "},"M":{"ha":1272,"x_min":56,"x_max":1216,"o":"m 56 0 l 213 926 l 450 926 l 638 432 l 837 926 l 1076 926 l 1216 0 l 975 0 l 907 533 l 683 0 l 587 0 l 374 533 l 295 0 l 56 0 z "},"N":{"ha":1118,"x_min":97,"x_max":1021,"o":"m 97 0 l 97 926 l 338 926 l 781 359 l 781 926 l 1021 926 l 1021 0 l 781 0 l 338 567 l 338 0 l 97 0 z "},"O":{"ha":1136,"x_min":56,"x_max":1080,"o":"m 568 954 q 947 798 800 954 q 1080 460 1080 658 q 1013 210 1080 325 q 814 22 941 87 q 564 -33 705 -33 q 189 121 335 -33 q 56 469 56 262 q 123 710 56 598 q 568 954 266 949 m 568 720 q 385 644 460 720 q 308 463 308 567 q 385 276 308 353 q 568 200 460 200 q 753 276 676 200 q 829 460 829 353 q 753 644 829 570 q 568 720 676 719 z "},"P":{"ha":832,"x_min":97,"x_max":802,"o":"m 338 308 l 338 0 l 97 0 l 97 926 l 480 926 q 613 908 561 926 q 711 848 666 890 q 802 618 802 763 q 727 394 802 478 q 488 308 651 308 l 338 308 m 338 501 l 418 501 q 516 528 488 501 q 550 616 550 559 q 418 732 550 732 l 338 732 l 338 501 z "},"Q":{"ha":1136,"x_min":56,"x_max":1116,"o":"m 1116 -26 l 895 -60 l 821 26 q 581 -33 714 -33 q 173 142 315 -33 q 56 461 56 285 q 111 685 56 578 q 308 890 180 821 q 567 951 420 951 q 829 890 710 951 q 1026 690 957 823 q 1080 460 1080 585 q 1053 292 1080 368 q 960 132 1025 216 l 1116 -26 m 721 388 l 785 319 q 829 459 829 385 q 753 640 829 562 q 568 718 677 718 q 380 639 458 718 q 307 454 307 564 q 389 267 307 340 q 566 201 463 201 q 642 212 602 201 l 494 360 l 721 388 z "},"R":{"ha":871,"x_min":97,"x_max":867,"o":"m 576 380 l 867 0 l 567 0 l 338 355 l 338 0 l 97 0 l 97 926 l 471 926 q 604 906 549 926 q 699 844 659 886 q 778 640 778 760 q 755 524 778 578 q 694 435 732 469 q 576 380 650 397 m 338 511 l 382 511 q 486 536 451 511 q 517 575 505 550 q 530 626 530 601 q 517 676 530 651 q 486 716 505 702 q 382 741 451 741 l 338 741 l 338 511 z "},"S":{"ha":793,"x_min":56,"x_max":739,"o":"m 701 873 l 605 686 q 448 748 528 748 q 368 720 397 748 q 345 669 345 696 q 402 599 345 627 q 511 564 418 591 q 685 467 632 528 q 739 307 739 407 q 619 44 739 127 q 378 -24 522 -24 q 56 81 206 -24 l 159 275 q 371 180 267 180 q 464 214 435 180 q 487 271 487 240 q 457 331 487 309 q 342 378 427 353 q 166 452 210 416 q 92 636 92 513 q 188 868 92 781 q 408 948 275 948 q 701 873 559 948 z "},"T":{"ha":654,"x_min":9,"x_max":646,"o":"m 446 722 l 446 0 l 205 0 l 205 722 l 9 722 l 9 926 l 646 926 l 646 722 l 446 722 z "},"U":{"ha":1002,"x_min":97,"x_max":905,"o":"m 338 926 l 338 425 q 342 317 338 345 q 364 259 347 288 q 498 189 406 189 q 582 209 544 189 q 640 264 621 229 q 659 321 654 291 q 664 425 664 352 l 664 926 l 905 926 l 905 392 q 869 188 905 259 q 709 24 816 79 q 495 -24 617 -24 q 253 37 356 -24 q 132 167 167 87 q 97 392 97 247 l 97 926 l 338 926 z "},"V":{"ha":971,"x_min":0,"x_max":971,"o":"m 262 926 l 485 363 l 710 926 l 971 926 l 576 0 l 389 0 l 0 926 l 262 926 z "},"W":{"ha":1408,"x_min":0,"x_max":1408,"o":"m 252 926 l 412 328 l 608 926 l 800 926 l 982 328 l 1157 926 l 1408 926 l 1112 0 l 867 0 l 698 536 l 521 0 l 276 0 l 0 926 l 252 926 z "},"X":{"ha":987,"x_min":0,"x_max":987,"o":"m 362 494 l 66 926 l 362 926 l 500 686 l 644 926 l 939 926 l 637 494 l 987 0 l 696 0 l 498 301 l 291 0 l 0 0 l 362 494 z "},"Y":{"ha":889,"x_min":-17,"x_max":905,"o":"m 318 445 l -17 926 l 271 926 l 446 673 l 614 926 l 905 926 l 559 445 l 559 0 l 318 0 l 318 445 z "},"Z":{"ha":877,"x_min":18,"x_max":858,"o":"m 422 203 l 810 203 l 810 0 l 18 0 l 456 722 l 92 722 l 92 926 l 858 926 l 422 203 z "},"[":{"ha":467,"x_min":111,"x_max":412,"o":"m 287 889 l 287 -82 l 412 -82 l 412 -213 l 111 -213 l 111 1019 l 412 1019 l 412 889 l 287 889 z "},"\\":{"ha":688,"x_min":8,"x_max":690,"o":"m 184 1019 l 690 -213 l 514 -213 l 8 1019 l 184 1019 z "},"]":{"ha":467,"x_min":56,"x_max":356,"o":"m 180 -83 l 180 888 l 56 888 l 56 1019 l 356 1019 l 356 -213 l 56 -213 l 56 -83 l 180 -83 z "},"^":{"ha":694,"x_min":9,"x_max":686,"o":"m 238 469 l 9 469 l 202 932 l 493 932 l 686 469 l 457 469 l 348 755 l 238 469 z "},"_":{"ha":694,"x_min":0,"x_max":694,"o":"m 0 -67 l 694 -67 l 694 -220 l 0 -220 l 0 -67 z "},"`":{"ha":694,"x_min":134,"x_max":450,"o":"m 134 911 l 275 1013 l 450 798 l 347 722 l 134 911 z "},"a":{"ha":861,"x_min":51,"x_max":785,"o":"m 563 629 l 785 629 l 785 0 l 563 0 l 563 69 q 369 -20 491 -20 q 217 20 290 -20 q 94 142 138 64 q 51 316 51 218 q 163 573 51 477 q 367 650 252 650 q 475 630 428 650 q 563 568 522 610 l 563 629 m 426 458 q 324 416 366 458 q 282 317 282 374 q 324 214 282 256 q 426 172 366 172 q 528 214 486 172 q 570 315 570 255 q 528 416 570 374 q 426 458 486 457 z "},"b":{"ha":861,"x_min":76,"x_max":810,"o":"m 298 1019 l 298 568 q 368 621 334 605 q 494 650 427 650 q 727 545 633 650 q 810 316 810 453 q 701 60 810 157 q 492 -20 610 -20 q 298 69 370 -20 l 298 0 l 76 0 l 76 1019 l 298 1019 m 435 458 q 334 416 376 458 q 292 315 292 374 q 334 214 292 256 q 436 172 376 172 q 537 214 496 172 q 579 313 579 256 q 538 415 579 374 q 435 458 496 457 z "},"c":{"ha":602,"x_min":51,"x_max":551,"o":"m 551 614 l 551 425 q 435 465 492 465 q 319 416 364 465 q 282 313 282 375 q 327 203 282 245 q 435 161 372 161 q 551 203 497 161 l 551 14 q 395 -21 473 -21 q 212 30 297 -21 q 51 309 51 125 q 163 564 51 465 q 401 649 260 649 q 551 614 481 649 z "},"d":{"ha":861,"x_min":51,"x_max":785,"o":"m 563 1019 l 785 1019 l 785 0 l 563 0 l 563 69 q 369 -20 491 -20 q 217 20 290 -20 q 94 142 138 64 q 51 316 51 218 q 163 573 51 477 q 367 650 252 650 q 475 630 428 650 q 563 568 522 610 l 563 1019 m 426 458 q 324 416 366 458 q 282 317 282 374 q 324 214 282 256 q 426 172 366 172 q 528 214 486 172 q 570 315 570 255 q 528 416 570 374 q 426 458 486 457 z "},"e":{"ha":795,"x_min":50,"x_max":743,"o":"m 743 274 l 275 274 q 411 132 277 132 q 475 145 451 132 q 520 192 499 159 l 734 192 q 678 80 713 121 q 565 2 633 28 q 410 -25 491 -25 q 123 93 222 -25 q 50 309 50 181 q 98 495 50 411 q 401 647 184 647 q 638 568 550 647 q 719 448 694 517 q 743 274 743 379 m 536 403 q 491 476 525 450 q 407 503 456 503 q 323 477 356 503 q 281 403 290 450 l 536 403 z "},"f":{"ha":480,"x_min":15,"x_max":473,"o":"m 317 444 l 317 0 l 94 0 l 94 444 l 15 444 l 15 629 l 94 629 l 94 724 q 110 850 94 803 q 165 939 125 897 q 375 1032 253 1032 q 473 1009 424 1032 l 473 815 q 395 838 427 838 q 353 825 374 838 q 325 796 332 813 q 317 709 317 777 l 317 629 l 473 629 l 473 444 l 317 444 z "},"g":{"ha":857,"x_min":51,"x_max":781,"o":"m 781 629 l 781 43 q 749 -145 781 -85 q 598 -283 699 -240 q 414 -317 521 -317 q 126 -208 230 -317 q 58 -77 71 -149 l 309 -77 q 414 -140 331 -140 q 520 -100 481 -140 q 558 10 558 -60 l 558 70 q 464 5 508 24 q 360 -13 420 -13 q 117 100 205 -13 q 51 305 51 183 q 149 557 51 460 q 371 647 241 647 q 475 628 431 647 q 558 564 519 608 l 558 629 l 781 629 m 425 460 q 324 418 366 460 q 282 318 282 376 q 324 215 282 257 q 426 173 366 173 q 527 215 485 173 q 569 317 569 257 q 528 418 569 376 q 425 460 486 459 z "},"h":{"ha":816,"x_min":76,"x_max":740,"o":"m 76 1019 l 298 1019 l 298 550 q 370 613 337 595 q 500 644 423 644 q 682 574 614 644 q 727 503 714 541 q 740 401 740 465 l 740 0 l 517 0 l 517 319 q 504 418 517 391 q 468 453 493 440 q 415 467 444 467 q 322 425 357 467 q 298 337 298 395 l 298 0 l 76 0 l 76 1019 z "},"i":{"ha":374,"x_min":62,"x_max":312,"o":"m 298 629 l 298 0 l 75 0 l 75 629 l 298 629 m 186 996 q 275 960 239 996 q 312 871 312 923 q 275 783 312 819 q 187 746 239 746 q 98 783 134 746 q 62 873 62 820 q 98 959 62 923 q 186 996 135 996 z "},"j":{"ha":374,"x_min":62,"x_max":312,"o":"m 298 629 l 298 -315 l 75 -315 l 75 629 l 298 629 m 186 996 q 275 960 239 996 q 312 871 312 923 q 275 783 312 819 q 187 746 239 746 q 98 783 134 746 q 62 873 62 820 q 98 959 62 923 q 186 996 135 996 z "},"k":{"ha":857,"x_min":76,"x_max":855,"o":"m 298 1019 l 298 403 l 531 629 l 836 629 l 521 339 l 855 0 l 543 0 l 298 256 l 298 0 l 76 0 l 76 1019 l 298 1019 z "},"l":{"ha":374,"x_min":76,"x_max":298,"o":"m 298 1019 l 298 0 l 76 0 l 76 1019 l 298 1019 z "},"m":{"ha":1217,"x_min":76,"x_max":1141,"o":"m 76 629 l 298 629 l 298 552 q 394 620 348 600 q 502 640 440 640 q 627 611 576 640 q 716 522 677 583 q 928 640 789 640 q 1032 617 984 640 q 1107 555 1080 595 q 1141 409 1141 505 l 1141 0 l 919 0 l 919 311 q 917 376 919 359 q 907 412 915 393 q 826 467 884 467 q 773 450 798 467 q 735 409 747 434 q 720 311 720 375 l 720 0 l 497 0 l 497 311 q 488 410 497 386 q 453 454 478 437 q 401 471 429 471 q 350 455 375 471 q 313 418 325 440 q 298 311 298 387 l 298 0 l 76 0 l 76 629 z "},"n":{"ha":816,"x_min":76,"x_max":740,"o":"m 76 629 l 298 629 l 298 550 q 370 613 337 595 q 500 643 422 643 q 682 574 615 643 q 727 503 714 541 q 740 401 740 465 l 740 0 l 517 0 l 517 319 q 504 417 517 391 q 468 453 493 439 q 415 466 444 466 q 322 424 357 466 q 298 337 298 395 l 298 0 l 76 0 l 76 629 z "},"o":{"ha":859,"x_min":51,"x_max":808,"o":"m 429 652 q 722 538 616 652 q 808 315 808 445 q 694 64 808 161 q 426 -24 593 -24 q 228 22 320 -24 q 93 152 142 64 q 51 320 51 226 q 165 565 51 466 q 429 652 263 650 m 429 460 q 328 418 370 460 q 286 318 286 376 q 328 214 286 256 q 430 172 370 172 q 531 214 489 172 q 573 316 573 256 q 532 418 573 376 q 429 460 490 460 z "},"p":{"ha":861,"x_min":76,"x_max":810,"o":"m 298 -315 l 76 -315 l 76 629 l 298 629 l 298 560 q 492 650 370 650 q 644 610 572 650 q 768 487 724 565 q 810 313 810 411 q 699 56 810 153 q 494 -20 610 -20 q 387 -1 433 -20 q 298 62 340 19 l 298 -315 m 435 458 q 334 416 376 458 q 292 315 292 374 q 334 213 292 256 q 436 171 376 171 q 537 213 496 171 q 579 313 579 256 q 538 415 579 374 q 435 458 496 457 z "},"q":{"ha":861,"x_min":51,"x_max":785,"o":"m 563 -315 l 563 62 q 493 8 527 24 q 367 -20 434 -20 q 134 84 229 -20 q 51 313 51 176 q 160 569 51 473 q 369 650 252 650 q 563 560 491 650 l 563 629 l 785 629 l 785 -315 l 563 -315 m 426 458 q 324 416 366 458 q 282 316 282 374 q 324 213 282 256 q 426 171 366 171 q 528 213 486 171 q 570 315 570 255 q 528 416 570 374 q 426 458 486 457 z "},"r":{"ha":571,"x_min":76,"x_max":549,"o":"m 76 629 l 298 629 l 298 526 q 385 612 336 586 q 505 638 434 638 q 549 636 522 638 l 549 424 q 454 446 503 446 q 337 402 376 446 q 298 269 298 357 l 298 0 l 76 0 l 76 629 z "},"s":{"ha":625,"x_min":37,"x_max":588,"o":"m 570 611 l 494 467 q 373 498 431 498 q 324 485 343 498 q 305 453 305 473 q 340 415 305 428 q 405 399 351 411 q 524 351 483 384 q 588 213 588 301 q 496 32 588 97 q 289 -24 416 -24 q 37 49 161 -24 l 118 206 q 295 142 214 142 q 345 156 326 142 q 365 191 365 170 q 347 225 365 214 q 270 249 329 237 q 151 292 190 266 q 85 424 85 336 q 155 586 85 522 q 366 652 228 652 q 570 611 471 652 z "},"t":{"ha":458,"x_min":28,"x_max":451,"o":"m 324 444 l 324 0 l 102 0 l 102 444 l 28 444 l 28 629 l 102 629 l 102 819 l 324 819 l 324 629 l 451 629 l 451 444 l 324 444 z "},"u":{"ha":822,"x_min":76,"x_max":747,"o":"m 298 629 l 298 273 q 412 156 298 156 q 524 273 524 156 l 524 629 l 747 629 l 747 230 q 677 53 747 117 q 412 -27 589 -27 q 146 53 234 -27 q 76 230 76 117 l 76 629 l 298 629 z "},"v":{"ha":801,"x_min":0,"x_max":801,"o":"m 250 629 l 401 307 l 552 629 l 801 629 l 473 0 l 325 0 l 0 629 l 250 629 z "},"w":{"ha":1259,"x_min":0,"x_max":1259,"o":"m 248 629 l 399 298 l 557 629 l 696 629 l 854 288 l 1012 629 l 1259 629 l 930 0 l 781 0 l 624 345 l 473 0 l 323 0 l 0 629 l 248 629 z "},"x":{"ha":911,"x_min":0,"x_max":911,"o":"m 315 342 l 59 629 l 349 629 l 457 500 l 568 629 l 857 629 l 596 342 l 911 0 l 617 0 l 455 187 l 294 0 l 0 0 l 315 342 z "},"y":{"ha":845,"x_min":0,"x_max":845,"o":"m 304 86 l 0 629 l 258 629 l 427 307 l 590 629 l 845 629 l 340 -315 l 90 -315 l 304 86 z "},"z":{"ha":724,"x_min":28,"x_max":696,"o":"m 401 185 l 666 185 l 666 0 l 28 0 l 325 444 l 68 444 l 68 629 l 696 629 l 401 185 z "},"{":{"ha":532,"x_min":112,"x_max":477,"o":"m 283 403 q 349 334 331 372 q 366 227 366 296 l 366 39 q 370 -24 366 -9 q 387 -47 374 -39 q 451 -58 403 -58 q 477 -58 459 -58 l 477 -215 q 387 -218 440 -216 q 371 -218 378 -218 q 231 -171 273 -218 q 189 -18 189 -125 l 189 214 q 171 299 189 272 q 112 334 154 326 l 112 485 q 170 517 152 492 q 189 591 183 536 l 189 823 q 231 978 189 932 q 374 1023 273 1023 q 413 1022 379 1023 q 477 1020 444 1021 l 477 863 q 452 863 463 863 q 385 851 400 863 q 370 828 373 842 q 366 767 366 813 l 366 578 q 349 472 366 508 q 283 403 332 437 z "},"|":{"ha":694,"x_min":215,"x_max":480,"o":"m 215 926 l 480 926 l 480 -231 l 215 -231 l 215 926 z "},"}":{"ha":532,"x_min":56,"x_max":421,"o":"m 250 403 q 184 471 201 434 q 166 578 166 509 l 166 767 q 162 830 166 814 q 146 853 159 845 q 82 864 130 864 q 56 863 74 864 l 56 1020 q 146 1023 92 1021 q 161 1023 154 1023 q 302 977 260 1023 q 344 823 344 930 l 344 591 q 361 507 344 534 q 421 471 378 479 l 421 321 q 362 288 381 313 q 349 256 354 276 q 344 215 344 237 l 344 -18 q 301 -172 344 -126 q 159 -218 259 -218 q 119 -216 153 -218 q 56 -214 90 -215 l 56 -58 q 142 -50 120 -58 q 161 -26 157 -43 q 166 39 166 -10 l 166 228 q 183 333 166 298 q 250 403 200 369 z "},"~":{"ha":926,"x_min":125,"x_max":800,"o":"m 222 779 l 125 843 q 153 905 132 860 q 335 1036 210 1036 q 479 999 381 1036 q 559 971 541 976 q 599 966 578 966 q 654 981 633 966 q 699 1038 675 996 l 800 979 q 749 885 770 915 q 699 834 728 855 q 581 795 644 795 q 439 833 544 795 q 325 864 351 864 q 262 840 290 864 q 222 779 248 827 z "},"Ä":{"ha":986,"x_min":9,"x_max":977,"o":"m 660 161 l 328 161 l 264 0 l 9 0 l 366 926 l 628 926 l 977 0 l 720 0 l 660 161 m 595 345 l 495 640 l 394 345 l 595 345 m 326 1255 q 412 1219 376 1255 q 447 1135 447 1184 q 412 1049 447 1084 q 327 1014 376 1014 q 241 1049 276 1014 q 206 1136 206 1085 q 241 1219 206 1185 q 326 1255 277 1254 m 660 1255 q 745 1219 710 1255 q 781 1135 781 1184 q 745 1049 781 1084 q 661 1014 710 1014 q 575 1049 610 1014 q 540 1136 540 1085 q 575 1219 540 1185 q 660 1255 610 1254 z "},"Å":{"ha":986,"x_min":9,"x_max":977,"o":"m 660 161 l 328 161 l 264 0 l 9 0 l 366 926 l 628 926 l 977 0 l 720 0 l 660 161 m 595 345 l 495 640 l 394 345 l 595 345 m 488 1283 l 498 1283 q 644 1236 595 1283 q 684 1139 684 1198 q 644 1042 684 1080 q 498 995 595 995 l 488 995 q 342 1042 392 995 q 302 1141 302 1080 q 342 1236 302 1198 q 488 1283 392 1283 m 492 1192 q 441 1178 460 1192 q 422 1140 422 1164 q 441 1101 422 1115 q 492 1086 460 1086 q 546 1101 526 1086 q 565 1139 565 1115 q 546 1178 565 1164 q 492 1192 526 1192 z "},"Ç":{"ha":819,"x_min":56,"x_max":764,"o":"m 764 899 l 764 610 q 555 712 681 712 q 372 635 446 712 q 307 457 307 567 q 389 270 307 338 q 555 208 462 208 q 764 305 671 208 l 764 20 q 638 -17 678 -8 q 548 -25 598 -25 q 303 39 420 -25 q 115 222 178 108 q 56 455 56 326 q 127 715 56 600 q 315 888 195 825 q 546 945 425 945 q 764 899 645 945 m 625 -160 l 433 -347 l 325 -272 l 488 -64 l 625 -160 z "},"É":{"ha":680,"x_min":97,"x_max":624,"o":"m 624 722 l 338 722 l 338 568 l 608 568 l 608 364 l 338 364 l 338 203 l 624 203 l 624 0 l 97 0 l 97 926 l 624 926 l 624 722 m 578 1161 l 342 1000 l 249 1087 l 450 1278 l 578 1161 z "},"Ñ":{"ha":1118,"x_min":97,"x_max":1021,"o":"m 97 0 l 97 926 l 338 926 l 781 359 l 781 926 l 1021 926 l 1021 0 l 781 0 l 338 567 l 338 0 l 97 0 m 413 1023 l 297 1023 q 316 1131 298 1088 q 371 1196 334 1172 q 453 1220 408 1220 q 580 1192 491 1220 q 667 1172 640 1172 q 720 1222 707 1172 l 841 1222 q 815 1109 832 1142 q 669 1023 772 1023 q 554 1047 621 1023 q 461 1072 483 1072 q 430 1063 439 1072 q 413 1023 421 1053 z "},"Ö":{"ha":1136,"x_min":56,"x_max":1080,"o":"m 568 954 q 947 798 800 954 q 1080 460 1080 658 q 1013 210 1080 325 q 814 22 941 87 q 564 -33 705 -33 q 189 121 335 -33 q 56 469 56 262 q 123 710 56 598 q 568 954 266 949 m 568 720 q 385 644 460 720 q 308 463 308 567 q 385 276 308 353 q 568 200 460 200 q 753 276 676 200 q 829 460 829 353 q 753 644 829 570 q 568 720 676 719 m 401 1255 q 487 1219 452 1255 q 522 1135 522 1184 q 487 1049 522 1084 q 402 1014 452 1014 q 316 1049 351 1014 q 281 1136 281 1085 q 317 1219 281 1185 q 401 1255 352 1254 m 735 1255 q 821 1219 785 1255 q 856 1135 856 1184 q 821 1049 856 1084 q 736 1014 785 1014 q 650 1049 685 1014 q 615 1136 615 1085 q 650 1219 615 1185 q 735 1255 686 1254 z "},"Ü":{"ha":1002,"x_min":97,"x_max":905,"o":"m 338 926 l 338 425 q 342 317 338 345 q 364 259 347 288 q 498 189 406 189 q 582 209 544 189 q 640 264 621 229 q 659 321 654 291 q 664 425 664 352 l 664 926 l 905 926 l 905 392 q 869 188 905 259 q 709 24 816 79 q 495 -24 617 -24 q 253 37 356 -24 q 132 167 167 87 q 97 392 97 247 l 97 926 l 338 926 m 334 1255 q 419 1219 384 1255 q 454 1135 454 1184 q 419 1049 454 1084 q 334 1014 384 1014 q 249 1049 283 1014 q 214 1136 214 1085 q 249 1219 214 1185 q 334 1255 284 1254 m 667 1255 q 753 1219 718 1255 q 788 1135 788 1184 q 753 1049 788 1084 q 668 1014 718 1014 q 582 1049 617 1014 q 547 1136 547 1085 q 583 1219 547 1185 q 667 1255 618 1254 z "},"á":{"ha":861,"x_min":51,"x_max":785,"o":"m 563 629 l 785 629 l 785 0 l 563 0 l 563 69 q 369 -20 491 -20 q 217 20 290 -20 q 94 142 138 64 q 51 316 51 218 q 163 573 51 477 q 367 650 252 650 q 475 630 428 650 q 563 568 522 610 l 563 629 m 426 458 q 324 416 366 458 q 282 317 282 374 q 324 214 282 256 q 426 172 366 172 q 528 214 486 172 q 570 315 570 255 q 528 416 570 374 q 426 458 486 457 m 644 911 l 431 722 l 328 798 l 503 1013 l 644 911 z "},"à":{"ha":861,"x_min":51,"x_max":785,"o":"m 563 629 l 785 629 l 785 0 l 563 0 l 563 69 q 369 -20 491 -20 q 217 20 290 -20 q 94 142 138 64 q 51 316 51 218 q 163 573 51 477 q 367 650 252 650 q 475 630 428 650 q 563 568 522 610 l 563 629 m 426 458 q 324 416 366 458 q 282 317 282 374 q 324 214 282 256 q 426 172 366 172 q 528 214 486 172 q 570 315 570 255 q 528 416 570 374 q 426 458 486 457 m 235 911 l 376 1013 l 552 798 l 449 722 l 235 911 z "},"â":{"ha":861,"x_min":51,"x_max":785,"o":"m 563 629 l 785 629 l 785 0 l 563 0 l 563 69 q 369 -20 491 -20 q 217 20 290 -20 q 94 142 138 64 q 51 316 51 218 q 163 573 51 477 q 367 650 252 650 q 475 630 428 650 q 563 568 522 610 l 563 629 m 426 458 q 324 416 366 458 q 282 317 282 374 q 324 214 282 256 q 426 172 366 172 q 528 214 486 172 q 570 315 570 255 q 528 416 570 374 q 426 458 486 457 m 166 829 l 437 1034 l 713 829 l 614 722 l 437 859 l 260 722 l 166 829 z "},"ä":{"ha":861,"x_min":51,"x_max":785,"o":"m 563 629 l 785 629 l 785 0 l 563 0 l 563 69 q 369 -20 491 -20 q 217 20 290 -20 q 94 142 138 64 q 51 316 51 218 q 163 573 51 477 q 367 650 252 650 q 475 630 428 650 q 563 568 522 610 l 563 629 m 426 458 q 324 416 366 458 q 282 317 282 374 q 324 214 282 256 q 426 172 366 172 q 528 214 486 172 q 570 315 570 255 q 528 416 570 374 q 426 458 486 457 m 282 968 q 368 932 332 968 q 403 848 403 897 q 368 762 403 798 q 283 727 332 727 q 197 763 232 727 q 162 849 162 798 q 197 932 162 898 q 282 968 233 967 m 597 968 q 682 933 647 968 q 718 848 718 898 q 682 762 718 798 q 597 727 647 727 q 512 763 547 727 q 477 849 477 798 q 512 932 477 898 q 597 968 547 967 z "},"ã":{"ha":861,"x_min":51,"x_max":785,"o":"m 563 629 l 785 629 l 785 0 l 563 0 l 563 69 q 369 -20 491 -20 q 217 20 290 -20 q 94 142 138 64 q 51 316 51 218 q 163 573 51 477 q 367 650 252 650 q 475 630 428 650 q 563 568 522 610 l 563 629 m 426 458 q 324 416 366 458 q 282 317 282 374 q 324 214 282 256 q 426 172 366 172 q 528 214 486 172 q 570 315 570 255 q 528 416 570 374 q 426 458 486 457 m 308 729 l 202 729 q 209 800 202 770 q 258 891 222 860 q 338 922 294 922 q 376 918 359 922 q 460 889 393 913 q 541 869 515 869 q 569 879 561 869 q 587 922 578 888 l 696 922 q 673 813 688 851 q 555 729 640 729 q 495 737 526 729 q 385 775 465 745 q 352 781 369 781 q 322 771 331 781 q 308 729 314 761 z "},"å":{"ha":861,"x_min":51,"x_max":785,"o":"m 563 629 l 785 629 l 785 0 l 563 0 l 563 69 q 369 -20 491 -20 q 217 20 290 -20 q 94 142 138 64 q 51 316 51 218 q 163 573 51 477 q 367 650 252 650 q 475 630 428 650 q 563 568 522 610 l 563 629 m 426 458 q 324 416 366 458 q 282 317 282 374 q 324 214 282 256 q 426 172 366 172 q 528 214 486 172 q 570 315 570 255 q 528 416 570 374 q 426 458 486 457 m 435 1015 l 444 1015 q 591 967 541 1015 q 631 871 631 930 q 591 774 631 811 q 444 727 541 727 l 435 727 q 289 774 339 727 q 249 872 249 811 q 289 967 249 930 q 435 1015 338 1015 m 438 926 q 386 911 406 926 q 366 871 366 897 q 385 830 366 846 q 439 815 405 815 q 494 830 474 815 q 514 871 514 845 q 494 912 514 897 q 438 926 474 926 z "},"ç":{"ha":602,"x_min":51,"x_max":551,"o":"m 551 614 l 551 425 q 435 465 492 465 q 319 416 364 465 q 282 313 282 375 q 327 203 282 245 q 435 161 372 161 q 551 203 497 161 l 551 14 q 395 -21 473 -21 q 212 30 297 -21 q 51 309 51 125 q 163 564 51 465 q 401 649 260 649 q 551 614 481 649 m 483 -153 l 293 -332 l 193 -269 l 355 -70 l 483 -153 z "},"é":{"ha":795,"x_min":50,"x_max":743,"o":"m 743 274 l 275 274 q 411 132 277 132 q 475 145 451 132 q 520 192 499 159 l 734 192 q 678 80 713 121 q 565 2 633 28 q 410 -25 491 -25 q 123 93 222 -25 q 50 309 50 181 q 98 495 50 411 q 401 647 184 647 q 638 568 550 647 q 719 448 694 517 q 743 274 743 379 m 536 403 q 491 476 525 450 q 407 503 456 503 q 323 477 356 503 q 281 403 290 450 l 536 403 m 611 911 l 397 722 l 294 798 l 470 1013 l 611 911 z "},"è":{"ha":795,"x_min":50,"x_max":743,"o":"m 743 274 l 275 274 q 411 132 277 132 q 475 145 451 132 q 520 192 499 159 l 734 192 q 678 80 713 121 q 565 2 633 28 q 410 -25 491 -25 q 123 93 222 -25 q 50 309 50 181 q 98 495 50 411 q 401 647 184 647 q 638 568 550 647 q 719 448 694 517 q 743 274 743 379 m 536 403 q 491 476 525 450 q 407 503 456 503 q 323 477 356 503 q 281 403 290 450 l 536 403 m 202 911 l 343 1013 l 519 798 l 416 722 l 202 911 z "},"ê":{"ha":795,"x_min":50,"x_max":743,"o":"m 743 274 l 275 274 q 411 132 277 132 q 475 145 451 132 q 520 192 499 159 l 734 192 q 678 80 713 121 q 565 2 633 28 q 410 -25 491 -25 q 123 93 222 -25 q 50 309 50 181 q 98 495 50 411 q 401 647 184 647 q 638 568 550 647 q 719 448 694 517 q 743 274 743 379 m 536 403 q 491 476 525 450 q 407 503 456 503 q 323 477 356 503 q 281 403 290 450 l 536 403 m 128 829 l 399 1034 l 675 829 l 576 722 l 399 859 l 222 722 l 128 829 z "},"ë":{"ha":795,"x_min":50,"x_max":743,"o":"m 743 274 l 275 274 q 411 132 277 132 q 475 145 451 132 q 520 192 499 159 l 734 192 q 678 80 713 121 q 565 2 633 28 q 410 -25 491 -25 q 123 93 222 -25 q 50 309 50 181 q 98 495 50 411 q 401 647 184 647 q 638 568 550 647 q 719 448 694 517 q 743 274 743 379 m 536 403 q 491 476 525 450 q 407 503 456 503 q 323 477 356 503 q 281 403 290 450 l 536 403 m 239 968 q 325 932 290 968 q 360 848 360 897 q 325 762 360 798 q 240 727 290 727 q 154 763 189 727 q 119 849 119 798 q 155 932 119 898 q 239 968 190 967 m 554 968 q 640 933 604 968 q 675 848 675 898 q 640 762 675 798 q 555 727 604 727 q 469 763 504 727 q 434 849 434 798 q 469 932 434 898 q 554 968 505 967 z "},"í":{"ha":374,"x_min":76,"x_max":401,"o":"m 298 629 l 298 0 l 76 0 l 76 629 l 298 629 m 401 911 l 187 722 l 84 798 l 260 1013 l 401 911 z "},"ì":{"ha":374,"x_min":-27,"x_max":298,"o":"m 298 629 l 298 0 l 76 0 l 76 629 l 298 629 m -27 911 l 114 1013 l 290 798 l 186 722 l -27 911 z "},"î":{"ha":374,"x_min":-58,"x_max":433,"o":"m 298 629 l 298 0 l 76 0 l 76 629 l 298 629 m -58 829 l 187 1034 l 433 829 l 334 722 l 187 859 l 36 722 l -58 829 z "},"ï":{"ha":374,"x_min":-77,"x_max":451,"o":"m 298 629 l 298 0 l 76 0 l 76 629 l 298 629 m 43 968 q 129 932 94 968 q 164 848 164 897 q 129 762 164 798 q 44 727 94 727 q -42 763 -7 727 q -77 849 -77 798 q -41 932 -77 898 q 43 968 -6 967 m 330 968 q 416 932 380 968 q 451 848 451 897 q 416 762 451 798 q 331 727 380 727 q 245 763 280 727 q 210 849 210 798 q 245 932 210 898 q 330 968 281 967 z "},"ñ":{"ha":816,"x_min":76,"x_max":740,"o":"m 76 629 l 298 629 l 298 550 q 370 613 337 595 q 500 643 422 643 q 682 574 615 643 q 727 503 714 541 q 740 401 740 465 l 740 0 l 517 0 l 517 319 q 504 417 517 391 q 468 453 493 439 q 415 466 444 466 q 322 424 357 466 q 298 337 298 395 l 298 0 l 76 0 l 76 629 m 267 729 l 161 729 q 168 800 161 770 q 217 891 181 860 q 296 922 253 922 q 335 918 317 922 q 418 889 352 913 q 499 869 474 869 q 528 879 519 869 q 545 922 536 888 l 655 922 q 631 813 647 851 q 514 729 598 729 q 454 737 484 729 q 343 775 423 745 q 311 781 328 781 q 281 771 290 781 q 267 729 273 761 z "},"ó":{"ha":859,"x_min":51,"x_max":808,"o":"m 429 652 q 722 538 616 652 q 808 315 808 445 q 694 64 808 161 q 426 -24 593 -24 q 228 22 320 -24 q 93 152 142 64 q 51 320 51 226 q 165 565 51 466 q 429 652 263 650 m 429 460 q 328 418 370 460 q 286 318 286 376 q 328 214 286 256 q 430 172 370 172 q 531 214 489 172 q 573 316 573 256 q 532 418 573 376 q 429 460 490 460 m 634 911 l 420 722 l 317 798 l 493 1013 l 634 911 z "},"ò":{"ha":859,"x_min":51,"x_max":808,"o":"m 429 652 q 722 538 616 652 q 808 315 808 445 q 694 64 808 161 q 426 -24 593 -24 q 228 22 320 -24 q 93 152 142 64 q 51 320 51 226 q 165 565 51 466 q 429 652 263 650 m 429 460 q 328 418 370 460 q 286 318 286 376 q 328 214 286 256 q 430 172 370 172 q 531 214 489 172 q 573 316 573 256 q 532 418 573 376 q 429 460 490 460 m 225 911 l 366 1013 l 542 798 l 439 722 l 225 911 z "},"ô":{"ha":859,"x_min":51,"x_max":808,"o":"m 429 652 q 722 538 616 652 q 808 315 808 445 q 694 64 808 161 q 426 -24 593 -24 q 228 22 320 -24 q 93 152 142 64 q 51 320 51 226 q 165 565 51 466 q 429 652 263 650 m 429 460 q 328 418 370 460 q 286 318 286 376 q 328 214 286 256 q 430 172 370 172 q 531 214 489 172 q 573 316 573 256 q 532 418 573 376 q 429 460 490 460 m 156 829 l 427 1034 l 703 829 l 604 722 l 427 859 l 250 722 l 156 829 z "},"ö":{"ha":859,"x_min":51,"x_max":808,"o":"m 429 652 q 722 538 616 652 q 808 315 808 445 q 694 64 808 161 q 426 -24 593 -24 q 228 22 320 -24 q 93 152 142 64 q 51 320 51 226 q 165 565 51 466 q 429 652 263 650 m 429 460 q 328 418 370 460 q 286 318 286 376 q 328 214 286 256 q 430 172 370 172 q 531 214 489 172 q 573 316 573 256 q 532 418 573 376 q 429 460 490 460 m 272 968 q 357 932 322 968 q 393 848 393 897 q 357 762 393 798 q 273 727 322 727 q 187 763 222 727 q 152 849 152 798 q 187 932 152 898 q 272 968 222 967 m 587 968 q 672 933 637 968 q 707 848 707 898 q 672 762 707 798 q 587 727 637 727 q 502 763 536 727 q 467 849 467 798 q 502 932 467 898 q 587 968 537 967 z "},"õ":{"ha":859,"x_min":51,"x_max":808,"o":"m 429 652 q 722 538 616 652 q 808 315 808 445 q 694 64 808 161 q 426 -24 593 -24 q 228 22 320 -24 q 93 152 142 64 q 51 320 51 226 q 165 565 51 466 q 429 652 263 650 m 429 460 q 328 418 370 460 q 286 318 286 376 q 328 214 286 256 q 430 172 370 172 q 531 214 489 172 q 573 316 573 256 q 532 418 573 376 q 429 460 490 460 m 298 729 l 192 729 q 199 800 192 770 q 248 891 212 860 q 328 922 284 922 q 366 918 349 922 q 450 889 383 913 q 530 869 505 869 q 559 879 551 869 q 576 922 568 888 l 686 922 q 663 813 678 851 q 545 729 629 729 q 485 737 515 729 q 374 775 454 745 q 342 781 359 781 q 312 771 321 781 q 298 729 304 761 z "},"ú":{"ha":822,"x_min":76,"x_max":747,"o":"m 298 629 l 298 273 q 412 156 298 156 q 524 273 524 156 l 524 629 l 747 629 l 747 230 q 677 53 747 117 q 412 -27 589 -27 q 146 53 234 -27 q 76 230 76 117 l 76 629 l 298 629 m 625 911 l 412 722 l 309 798 l 484 1013 l 625 911 z "},"ù":{"ha":822,"x_min":76,"x_max":747,"o":"m 298 629 l 298 273 q 412 156 298 156 q 524 273 524 156 l 524 629 l 747 629 l 747 230 q 677 53 747 117 q 412 -27 589 -27 q 146 53 234 -27 q 76 230 76 117 l 76 629 l 298 629 m 197 911 l 338 1013 l 514 798 l 411 722 l 197 911 z "},"û":{"ha":822,"x_min":76,"x_max":747,"o":"m 298 629 l 298 273 q 412 156 298 156 q 524 273 524 156 l 524 629 l 747 629 l 747 230 q 677 53 747 117 q 412 -27 589 -27 q 146 53 234 -27 q 76 230 76 117 l 76 629 l 298 629 m 138 829 l 409 1034 l 684 829 l 586 722 l 409 859 l 232 722 l 138 829 z "},"ü":{"ha":822,"x_min":76,"x_max":747,"o":"m 298 629 l 298 273 q 412 156 298 156 q 524 273 524 156 l 524 629 l 747 629 l 747 230 q 677 53 747 117 q 412 -27 589 -27 q 146 53 234 -27 q 76 230 76 117 l 76 629 l 298 629 m 254 968 q 339 932 304 968 q 374 848 374 897 q 339 762 374 798 q 254 727 304 727 q 169 763 203 727 q 134 849 134 798 q 169 932 134 898 q 254 968 204 967 m 568 968 q 654 933 618 968 q 689 848 689 898 q 654 762 689 798 q 569 727 618 727 q 483 763 518 727 q 448 849 448 798 q 484 932 448 898 q 568 968 519 967 z "},"†":{"ha":833,"x_min":98,"x_max":736,"o":"m 314 1019 l 517 1019 l 517 812 l 736 812 l 736 636 l 517 636 l 517 -213 l 314 -213 l 314 636 l 98 636 l 98 812 l 314 812 l 314 1019 z "},"°":{"ha":833,"x_min":231,"x_max":602,"o":"m 416 939 q 547 885 493 939 q 602 754 602 831 q 547 623 602 677 q 416 569 493 569 q 286 623 339 569 q 231 757 231 678 q 285 885 231 831 q 416 939 339 939 m 416 843 q 354 817 380 843 q 328 755 328 791 q 353 692 328 718 q 416 666 379 666 q 479 692 453 666 q 505 754 505 718 q 479 817 505 791 q 416 843 454 842 z "},"¢":{"ha":833,"x_min":168,"x_max":664,"o":"m 592 912 l 592 790 q 664 769 625 783 l 664 570 q 552 616 610 616 q 443 571 486 616 q 401 464 401 528 q 453 350 401 392 q 551 315 496 315 q 664 362 616 315 l 664 162 q 592 143 621 146 l 592 13 l 479 13 l 479 134 q 264 231 354 142 q 168 465 168 328 q 252 689 168 597 q 479 798 334 779 l 479 912 l 592 912 z "},"£":{"ha":833,"x_min":28,"x_max":814,"o":"m 42 356 l 42 473 l 143 473 q 107 619 107 538 q 190 837 107 745 q 312 919 243 897 q 474 943 385 943 q 725 859 645 943 q 806 595 806 774 l 563 595 q 568 638 568 624 q 534 721 568 688 q 454 754 500 754 q 372 718 404 754 q 340 623 340 681 q 347 556 340 583 q 379 473 355 528 l 587 473 l 587 356 l 414 356 q 420 279 420 312 q 408 203 420 243 q 546 164 515 172 q 604 157 576 157 q 665 218 663 157 l 814 218 q 789 109 810 156 q 722 20 763 50 q 585 -20 669 -20 q 525 -14 554 -20 q 420 15 496 -7 q 264 45 315 45 q 186 0 202 45 l 28 0 q 90 140 50 91 q 238 218 157 218 q 250 264 250 243 q 225 356 250 310 l 42 356 z "},"§":{"ha":833,"x_min":119,"x_max":724,"o":"m 696 768 l 503 768 q 494 820 500 805 q 420 871 473 871 q 365 850 387 871 q 342 799 342 829 q 369 746 342 767 q 481 690 395 725 q 595 637 560 657 q 659 589 631 617 q 724 427 724 524 q 693 303 724 354 q 583 198 661 252 q 667 113 647 156 q 688 20 688 69 q 620 -143 688 -75 q 414 -222 543 -222 q 217 -152 292 -222 q 158 -69 176 -113 q 138 50 141 -25 l 335 50 q 342 -6 336 11 q 421 -61 362 -61 q 482 -37 457 -61 q 507 22 507 -13 q 471 92 507 66 q 366 137 443 112 q 254 181 290 162 q 188 229 217 200 q 119 406 119 296 q 162 553 119 491 q 254 626 186 588 q 172 717 190 672 q 155 803 155 759 q 219 960 155 897 q 414 1028 290 1028 q 565 997 497 1028 q 662 914 632 966 q 696 768 692 861 m 422 511 q 349 482 378 511 q 319 410 319 452 q 349 339 319 368 q 420 309 379 309 q 492 339 463 309 q 522 410 522 368 q 493 481 522 452 q 422 511 464 510 z "},"•":{"ha":926,"x_min":272,"x_max":657,"o":"m 467 663 q 600 607 544 663 q 657 471 657 551 q 601 334 657 391 q 465 278 545 278 q 330 334 386 278 q 272 471 272 391 q 329 608 272 553 q 467 663 387 663 z "},"¶":{"ha":833,"x_min":-7,"x_max":777,"o":"m 257 -127 l 257 446 q 239 446 247 446 q 150 460 195 446 q 74 499 105 475 q -7 682 -7 562 q 32 820 -7 762 q 137 900 68 874 q 313 926 205 926 l 777 926 l 777 789 l 675 789 l 675 -127 l 524 -127 l 524 789 l 408 789 l 408 -127 l 257 -127 z "},"ß":{"ha":825,"x_min":76,"x_max":774,"o":"m 76 0 l 76 743 q 157 962 76 890 q 393 1037 243 1037 q 625 956 543 1037 q 701 761 701 881 q 675 659 701 703 q 591 570 650 615 q 699 506 665 536 q 774 306 774 437 q 723 117 774 201 q 411 -19 640 -19 q 364 -18 396 -19 l 364 170 q 473 201 434 171 q 530 318 530 243 q 463 446 530 404 q 364 470 426 470 l 364 650 q 446 667 419 650 q 487 750 487 691 q 462 820 487 794 q 394 846 437 846 q 309 793 326 846 q 300 757 301 772 q 298 672 298 742 l 298 0 l 76 0 z "},"®":{"ha":1055,"x_min":46,"x_max":1009,"o":"m 536 947 q 780 876 665 947 q 956 683 895 804 q 1009 463 1009 578 q 939 210 1009 326 q 748 33 868 94 q 529 -21 645 -21 q 279 49 394 -21 q 100 242 162 120 q 46 463 46 347 q 117 717 46 600 q 311 895 187 832 q 536 947 414 947 m 534 860 q 257 745 370 860 q 142 463 142 629 q 257 181 142 298 q 528 66 370 66 q 800 182 688 66 q 913 463 913 298 q 856 671 913 574 q 704 817 801 764 q 534 860 627 857 m 606 409 l 789 185 l 579 185 l 451 371 l 451 185 l 283 185 l 283 741 l 525 741 q 671 690 621 741 q 724 565 724 639 q 694 466 724 506 q 606 409 664 427 m 451 500 l 470 500 q 528 513 509 500 q 552 557 552 529 q 530 600 552 585 q 470 614 509 614 l 451 614 l 451 500 z "},"©":{"ha":1055,"x_min":46,"x_max":1009,"o":"m 536 947 q 780 876 665 947 q 956 683 895 804 q 1009 463 1009 578 q 939 210 1009 326 q 748 33 868 94 q 529 -21 645 -21 q 279 49 394 -21 q 100 242 162 120 q 46 463 46 347 q 117 717 46 600 q 311 895 187 832 q 536 947 414 947 m 534 860 q 257 745 370 860 q 142 463 142 629 q 257 181 142 298 q 528 66 370 66 q 800 182 688 66 q 913 463 913 298 q 856 671 913 574 q 704 817 801 764 q 534 860 627 857 m 696 722 l 696 524 q 667 557 671 552 q 559 598 624 598 q 463 561 501 598 q 422 460 422 524 q 458 366 422 401 q 559 325 500 325 q 664 363 618 325 q 696 393 669 368 l 696 199 q 554 171 606 171 q 402 210 475 171 q 248 460 248 291 q 293 614 248 545 q 410 718 335 680 q 553 752 478 752 q 696 722 615 752 z "},"™":{"ha":1078,"x_min":1,"x_max":1052,"o":"m 254 802 l 254 398 l 111 398 l 111 802 l 1 802 l 1 926 l 366 926 l 366 802 l 254 802 m 393 398 l 481 926 l 623 926 l 724 655 l 831 926 l 974 926 l 1052 398 l 908 398 l 872 684 l 753 398 l 691 398 l 578 684 l 536 398 l 393 398 z "},"´":{"ha":694,"x_min":245,"x_max":562,"o":"m 562 911 l 348 722 l 245 798 l 420 1013 l 562 911 z "},"¨":{"ha":694,"x_min":70,"x_max":625,"o":"m 190 968 q 275 932 240 968 q 311 848 311 897 q 275 762 311 798 q 191 727 240 727 q 105 763 140 727 q 70 849 70 798 q 105 932 70 898 q 190 968 140 967 m 505 968 q 590 933 555 968 q 625 848 625 898 q 590 762 625 798 q 505 727 555 727 q 419 763 454 727 q 385 849 385 798 q 420 932 385 898 q 505 968 455 967 z "},"Æ":{"ha":1283,"x_min":9,"x_max":1274,"o":"m 655 163 l 321 163 l 263 0 l 9 0 l 366 926 l 933 926 l 1008 722 l 703 722 l 760 568 l 1064 568 l 1141 364 l 836 364 l 896 203 l 1200 203 l 1274 0 l 715 0 l 655 163 m 591 345 l 491 620 l 387 345 l 591 345 z "},"Ø":{"ha":1136,"x_min":37,"x_max":1097,"o":"m 1097 867 l 984 758 q 1082 463 1082 614 q 1014 210 1082 325 q 814 22 942 87 q 571 -33 704 -33 q 250 67 399 -33 l 133 -43 l 37 58 l 151 167 q 78 309 100 243 q 56 454 56 375 q 111 687 56 578 q 300 887 178 817 q 566 953 416 953 q 800 908 692 953 q 884 854 837 892 l 1002 968 l 1097 867 m 696 683 q 566 720 639 720 q 372 629 449 720 q 308 464 308 555 q 338 341 308 395 l 696 683 m 431 234 q 565 200 508 200 q 760 283 681 200 q 829 456 829 357 q 797 585 829 515 l 431 234 z "},"±":{"ha":833,"x_min":88,"x_max":745,"o":"m 88 602 l 338 602 l 338 852 l 496 852 l 496 602 l 745 602 l 745 444 l 496 444 l 496 222 l 338 222 l 338 444 l 88 444 l 88 602 m 88 157 l 745 157 l 745 0 l 88 0 l 88 157 z "},"¥":{"ha":833,"x_min":5,"x_max":829,"o":"m 74 458 l 74 603 l 201 603 l 5 926 l 279 926 l 418 660 l 551 926 l 829 926 l 625 603 l 760 603 l 760 458 l 534 458 l 526 445 l 526 371 l 760 371 l 760 226 l 526 226 l 526 0 l 297 0 l 297 226 l 74 226 l 74 371 l 297 371 l 297 445 l 290 458 l 74 458 z "},"µ":{"ha":822,"x_min":76,"x_max":747,"o":"m 298 -315 l 76 -315 l 76 629 l 298 629 l 298 270 q 327 185 298 214 q 412 156 355 156 q 524 273 524 156 l 524 629 l 747 629 l 747 230 q 677 54 747 115 q 427 -27 586 -27 q 280 -3 347 -27 l 298 -315 z "},"ª":{"ha":504,"x_min":30,"x_max":464,"o":"m 330 914 l 460 914 l 460 547 l 330 547 l 330 587 q 216 534 288 534 q 79 596 136 534 q 30 731 30 649 q 95 882 30 825 q 215 926 146 926 q 330 878 284 926 l 330 914 m 249 814 q 190 789 214 814 q 165 731 165 765 q 189 671 165 696 q 249 646 214 646 q 308 671 283 646 q 333 730 333 696 q 309 789 333 765 q 249 814 284 813 m 43 477 l 464 477 l 464 393 l 43 393 l 43 477 z "},"º":{"ha":502,"x_min":30,"x_max":473,"o":"m 251 928 q 422 861 360 928 q 473 730 473 806 q 406 583 473 641 q 249 532 347 532 q 81 599 142 532 q 30 733 30 654 q 96 876 30 819 q 251 928 154 926 m 251 814 q 192 789 216 814 q 167 731 167 765 q 192 671 167 696 q 252 646 216 646 q 311 671 286 646 q 336 730 336 695 q 311 789 336 765 q 251 814 287 813 m 41 477 l 461 477 l 461 393 l 41 393 l 41 477 z "},"æ":{"ha":1205,"x_min":51,"x_max":1154,"o":"m 1154 279 l 684 279 q 713 185 686 219 q 827 135 753 135 q 928 195 903 135 l 1144 195 q 1079 77 1124 124 q 819 -22 985 -22 q 663 10 726 -22 q 570 102 600 41 q 311 -18 471 -18 q 189 2 245 -18 q 100 58 133 22 q 51 185 51 111 q 140 350 51 290 q 313 393 202 393 q 475 360 390 393 q 475 377 475 370 q 323 490 475 490 q 150 454 259 490 l 150 622 q 336 652 252 652 q 507 609 439 652 q 570 540 538 589 q 670 623 608 594 q 810 652 732 652 q 1024 591 934 652 q 1123 472 1093 545 q 1154 279 1154 399 m 947 408 q 912 472 935 450 q 817 510 875 510 q 689 408 723 510 l 947 408 m 364 268 q 291 246 315 268 q 269 201 269 227 q 296 151 269 170 q 369 131 324 131 q 451 153 420 131 q 480 201 480 175 q 448 249 480 230 q 364 268 416 267 z "},"ø":{"ha":859,"x_min":18,"x_max":847,"o":"m 18 50 l 111 122 q 52 317 52 212 q 100 488 52 410 q 436 652 201 652 q 677 582 565 652 l 782 663 l 847 581 l 753 502 q 796 418 784 456 q 808 328 808 380 q 694 61 808 153 q 425 -24 589 -24 q 186 49 275 -24 l 84 -31 l 18 50 m 297 258 l 511 435 q 436 461 475 461 q 323 415 368 461 q 283 317 283 373 q 297 258 283 292 m 355 195 q 429 172 389 172 q 537 218 495 172 q 576 314 576 261 q 565 366 576 336 l 355 195 z "},"¿":{"ha":758,"x_min":55,"x_max":711,"o":"m 502 404 l 502 164 q 452 171 473 171 q 338 136 384 171 q 292 48 292 100 q 318 -17 292 9 q 384 -43 345 -43 q 444 -18 422 -43 q 467 51 465 7 l 711 51 q 650 -121 709 -49 q 529 -208 604 -178 q 379 -237 458 -237 q 149 -151 240 -237 q 80 -56 104 -110 q 55 54 55 -1 q 81 165 55 112 q 153 254 108 219 q 277 315 199 288 l 277 404 l 502 404 m 383 741 q 485 699 443 741 q 527 595 527 656 q 485 495 527 537 q 384 454 442 454 q 282 496 324 454 q 240 597 240 538 q 281 698 240 656 q 383 741 323 740 z "},"¡":{"ha":472,"x_min":93,"x_max":380,"o":"m 236 741 q 338 699 296 741 q 380 597 380 656 q 338 496 380 538 q 237 454 296 454 q 135 496 176 454 q 93 599 93 538 q 135 699 93 657 q 236 741 176 740 m 121 398 l 352 398 l 352 -213 l 121 -213 l 121 398 z "},"¬":{"ha":694,"x_min":46,"x_max":648,"o":"m 391 0 l 391 183 l 46 183 l 46 414 l 648 414 l 648 0 l 391 0 z "},"ƒ":{"ha":833,"x_min":-12,"x_max":808,"o":"m 573 616 l 709 616 l 692 523 l 557 523 l 492 165 q 456 16 475 72 q 404 -90 436 -41 q 296 -191 356 -161 q 115 -227 226 -227 q -12 -214 60 -227 l 24 -12 q 115 -24 79 -24 q 219 23 189 -24 q 277 222 250 69 l 332 523 l 226 523 l 240 616 l 349 616 l 376 763 q 409 871 389 829 q 465 947 429 913 q 651 1016 538 1016 q 735 1007 702 1016 q 808 973 768 998 l 772 781 q 675 818 719 818 q 620 792 639 818 q 589 699 602 766 l 573 616 z "},"«":{"ha":737,"x_min":39,"x_max":682,"o":"m 524 317 l 682 103 l 555 14 l 345 317 l 555 618 l 678 534 l 524 317 m 218 317 l 376 103 l 250 14 l 39 317 l 250 618 l 372 534 l 218 317 z "},"»":{"ha":737,"x_min":56,"x_max":699,"o":"m 214 317 l 59 534 l 182 618 l 393 317 l 182 14 l 56 103 l 214 317 m 519 317 l 365 534 l 488 618 l 699 317 l 488 14 l 361 103 l 519 317 z "},"…":{"ha":1264,"x_min":67,"x_max":1197,"o":"m 211 262 q 313 220 271 262 q 355 118 355 178 q 313 16 355 58 q 211 -26 271 -26 q 109 16 151 -26 q 67 120 67 59 q 109 220 67 178 q 211 262 151 261 m 632 262 q 734 220 692 262 q 776 118 776 178 q 734 16 776 58 q 632 -26 692 -26 q 530 16 572 -26 q 488 120 488 59 q 530 220 488 178 q 632 262 572 261 m 1053 262 q 1155 220 1113 262 q 1197 118 1197 178 q 1155 16 1197 58 q 1053 -26 1113 -26 q 951 16 993 -26 q 909 120 909 59 q 951 220 909 178 q 1053 262 993 261 z "},"À":{"ha":986,"x_min":9,"x_max":977,"o":"m 660 161 l 328 161 l 264 0 l 9 0 l 366 926 l 628 926 l 977 0 l 720 0 l 660 161 m 595 345 l 495 640 l 394 345 l 595 345 m 273 1161 l 401 1278 l 602 1087 l 509 1000 l 273 1161 z "},"Ã":{"ha":986,"x_min":9,"x_max":977,"o":"m 660 161 l 328 161 l 264 0 l 9 0 l 366 926 l 628 926 l 977 0 l 720 0 l 660 161 m 595 345 l 495 640 l 394 345 l 595 345 m 338 1023 l 222 1023 q 241 1131 222 1088 q 296 1196 259 1172 q 378 1220 333 1220 q 505 1192 416 1220 q 591 1172 565 1172 q 645 1222 631 1172 l 766 1222 q 740 1109 757 1142 q 593 1023 696 1023 q 479 1047 545 1023 q 386 1072 408 1072 q 355 1063 364 1072 q 338 1023 346 1053 z "},"Õ":{"ha":1136,"x_min":56,"x_max":1080,"o":"m 568 954 q 947 798 800 954 q 1080 460 1080 658 q 1013 210 1080 325 q 814 22 941 87 q 564 -33 705 -33 q 189 121 335 -33 q 56 469 56 262 q 123 710 56 598 q 568 954 266 949 m 568 720 q 385 644 460 720 q 308 463 308 567 q 385 276 308 353 q 568 200 460 200 q 753 276 676 200 q 829 460 829 353 q 753 644 829 570 q 568 720 676 719 m 422 1023 l 306 1023 q 325 1131 307 1088 q 380 1196 343 1172 q 462 1220 417 1220 q 589 1192 500 1220 q 675 1172 649 1172 q 729 1222 715 1172 l 850 1222 q 824 1109 841 1142 q 677 1023 781 1023 q 563 1047 629 1023 q 470 1072 492 1072 q 439 1063 448 1072 q 422 1023 430 1053 z "},"Œ":{"ha":1409,"x_min":56,"x_max":1353,"o":"m 1353 721 l 1074 721 l 1074 568 l 1335 568 l 1335 364 l 1074 364 l 1074 203 l 1353 203 l 1353 0 l 833 0 l 833 98 q 542 -28 705 -28 q 329 24 431 -28 q 115 232 189 94 q 56 465 56 340 q 127 719 56 602 q 317 897 197 832 q 547 957 428 957 q 702 928 634 957 q 833 834 769 899 l 833 926 l 1353 926 l 1353 721 m 566 723 q 383 647 458 723 q 328 564 348 612 q 307 468 307 515 q 383 281 307 359 q 566 205 458 205 q 749 281 673 205 q 825 465 825 358 q 749 647 825 573 q 566 723 673 722 z "},"œ":{"ha":1301,"x_min":51,"x_max":1250,"o":"m 1250 277 l 777 277 q 806 182 783 212 q 916 135 842 135 q 980 149 956 135 q 1023 195 1004 162 l 1238 195 q 1179 78 1223 125 q 911 -23 1084 -23 q 770 3 827 -23 q 669 87 713 28 q 602 27 627 44 q 412 -23 532 -23 q 142 77 236 -23 q 51 312 51 172 q 104 502 51 418 q 414 652 201 652 q 552 630 494 652 q 669 553 609 608 q 768 625 710 602 q 911 648 827 648 q 1121 588 1038 648 q 1218 468 1188 540 q 1250 277 1247 397 m 1042 404 q 993 479 1027 453 q 913 506 960 506 q 830 479 864 506 q 783 404 796 453 l 1042 404 m 419 455 q 320 412 359 455 q 283 315 283 370 q 331 203 283 246 q 418 169 370 169 q 517 214 476 169 q 555 313 555 254 q 508 422 555 379 q 419 455 472 454 z "},"–":{"ha":833,"x_min":88,"x_max":745,"o":"m 88 421 l 745 421 l 745 236 l 88 236 l 88 421 z "},"—":{"ha":1065,"x_min":0,"x_max":1065,"o":"m 0 421 l 1065 421 l 1065 236 l 0 236 l 0 421 z "},"“":{"ha":794,"x_min":65,"x_max":749,"o":"m 589 519 l 380 519 l 606 926 l 749 926 l 589 519 m 275 519 l 65 519 l 291 926 l 433 926 l 275 519 z "},"”":{"ha":794,"x_min":46,"x_max":730,"o":"m 205 926 l 414 926 l 189 519 l 46 519 l 205 926 m 520 926 l 730 926 l 503 519 l 361 519 l 520 926 z "},"‘":{"ha":479,"x_min":65,"x_max":433,"o":"m 275 519 l 65 519 l 291 926 l 433 926 l 275 519 z "},"’":{"ha":479,"x_min":46,"x_max":414,"o":"m 205 926 l 414 926 l 189 519 l 46 519 l 205 926 z "},"÷":{"ha":833,"x_min":88,"x_max":745,"o":"m 88 542 l 745 542 l 745 385 l 88 385 l 88 542 m 415 319 q 484 291 456 319 q 513 222 513 262 q 484 153 513 182 q 416 125 456 125 q 347 154 375 125 q 318 223 318 182 q 347 291 318 262 q 415 319 375 319 m 415 801 q 484 772 456 801 q 513 704 513 744 q 484 635 513 663 q 416 606 456 606 q 347 635 375 606 q 318 705 318 664 q 347 772 318 744 q 415 801 375 800 z "},"ÿ":{"ha":845,"x_min":0,"x_max":845,"o":"m 304 86 l 0 629 l 258 629 l 427 307 l 590 629 l 845 629 l 340 -315 l 90 -315 l 304 86 m 264 968 q 350 932 315 968 q 385 848 385 897 q 350 762 385 798 q 265 727 315 727 q 179 763 214 727 q 144 849 144 798 q 180 932 144 898 q 264 968 215 967 m 579 968 q 665 933 629 968 q 700 848 700 898 q 665 762 700 798 q 580 727 629 727 q 494 763 529 727 q 459 849 459 798 q 494 932 459 898 q 579 968 530 967 z "},"Ÿ":{"ha":889,"x_min":-17,"x_max":905,"o":"m 318 445 l -17 926 l 271 926 l 446 673 l 614 926 l 905 926 l 559 445 l 559 0 l 318 0 l 318 445 m 277 1255 q 363 1219 328 1255 q 398 1135 398 1184 q 363 1049 398 1084 q 278 1014 328 1014 q 192 1049 227 1014 q 157 1136 157 1085 q 193 1219 157 1185 q 277 1255 228 1254 m 611 1255 q 696 1219 661 1255 q 732 1135 732 1184 q 696 1049 732 1084 q 612 1014 661 1014 q 526 1049 561 1014 q 491 1136 491 1085 q 526 1219 491 1185 q 611 1255 562 1254 z "},"∕":{"ha":241,"x_min":-208,"x_max":450,"o":"m 329 926 l 450 926 l -88 0 l -208 0 l 329 926 z "},"¤":{"ha":926,"x_min":27,"x_max":899,"o":"m 28 191 l 171 334 q 111 524 111 422 q 172 715 111 624 l 27 860 l 125 958 l 270 814 q 464 874 363 874 q 654 815 564 874 l 798 957 l 895 859 l 753 718 q 817 524 817 618 q 756 334 817 427 l 899 191 l 802 94 l 660 236 q 463 174 566 174 q 268 235 367 174 l 125 94 l 28 191 m 466 713 q 330 658 386 713 q 275 524 275 603 q 330 390 275 446 q 464 334 386 334 q 597 390 542 334 q 652 524 652 446 q 597 658 652 604 q 466 713 543 711 z "},"‹":{"ha":432,"x_min":39,"x_max":376,"o":"m 218 317 l 376 103 l 250 14 l 39 317 l 250 618 l 372 534 l 218 317 z "},"›":{"ha":432,"x_min":56,"x_max":393,"o":"m 214 317 l 59 534 l 182 618 l 393 317 l 182 14 l 56 103 l 214 317 z "},"":{"ha":826,"x_min":15,"x_max":764,"o":"m 317 444 l 317 0 l 94 0 l 94 444 l 15 444 l 15 629 l 94 629 l 94 724 q 110 850 94 803 q 165 939 125 897 q 375 1032 253 1032 q 473 1009 424 1032 l 473 815 q 395 838 427 838 q 353 825 374 838 q 325 796 332 813 q 317 709 317 777 l 317 629 l 473 629 l 473 444 l 317 444 m 750 629 l 750 0 l 528 0 l 528 629 l 750 629 m 639 996 q 728 960 691 996 q 764 871 764 923 q 728 783 764 819 q 640 746 691 746 q 551 783 587 746 q 514 873 514 820 q 551 959 514 923 q 639 996 587 996 z "},"":{"ha":826,"x_min":15,"x_max":750,"o":"m 317 444 l 317 0 l 94 0 l 94 444 l 15 444 l 15 629 l 94 629 l 94 724 q 110 850 94 803 q 165 939 125 897 q 375 1032 253 1032 q 473 1009 424 1032 l 473 815 q 395 838 427 838 q 353 825 374 838 q 325 796 332 813 q 317 709 317 777 l 317 629 l 473 629 l 473 444 l 317 444 m 750 1019 l 750 0 l 528 0 l 528 1019 l 750 1019 z "},"‡":{"ha":833,"x_min":98,"x_max":735,"o":"m 316 1019 l 519 1019 l 519 837 l 735 837 l 735 661 l 519 661 l 519 333 l 735 333 l 735 157 l 519 157 l 519 -213 l 316 -213 l 316 157 l 98 157 l 98 333 l 316 333 l 316 661 l 98 661 l 98 837 l 316 837 l 316 1019 z "},"∙":{"ha":421,"x_min":67,"x_max":354,"o":"m 210 472 q 312 430 270 472 q 354 329 354 388 q 312 227 354 269 q 211 185 270 185 q 109 227 151 185 q 67 330 67 270 q 109 430 67 389 q 210 472 151 471 z "},"‚":{"ha":479,"x_min":46,"x_max":414,"o":"m 205 235 l 414 235 l 189 -172 l 46 -172 l 205 235 z "},"„":{"ha":794,"x_min":46,"x_max":730,"o":"m 205 235 l 414 235 l 189 -172 l 46 -172 l 205 235 m 520 235 l 730 235 l 503 -172 l 361 -172 l 520 235 z "},"‰":{"ha":1839,"x_min":46,"x_max":1792,"o":"m 305 936 q 493 863 425 936 q 553 711 553 800 q 471 534 553 604 q 296 482 408 482 q 105 554 174 482 q 46 713 46 614 q 113 872 46 810 q 305 936 181 935 m 299 814 q 226 784 257 814 q 195 711 195 753 q 226 636 195 667 q 300 606 256 606 q 373 636 342 606 q 404 710 404 667 q 373 783 404 753 q 299 814 343 813 m 829 926 l 950 926 l 412 0 l 292 0 l 829 926 m 949 443 q 1137 370 1069 443 q 1197 218 1197 307 q 1115 41 1197 111 q 941 -11 1053 -11 q 749 61 818 -11 q 690 220 690 122 q 758 379 690 317 q 949 443 825 442 m 943 321 q 870 291 901 321 q 840 218 840 260 q 870 143 840 174 q 944 113 901 113 q 1017 143 987 113 q 1048 217 1048 174 q 1018 290 1048 260 q 943 321 987 320 m 1545 443 q 1733 370 1666 443 q 1792 218 1792 307 q 1710 41 1792 111 q 1536 -11 1648 -11 q 1345 61 1413 -11 q 1286 220 1286 122 q 1353 379 1286 317 q 1545 443 1421 442 m 1539 321 q 1466 291 1497 321 q 1435 218 1435 260 q 1466 143 1435 174 q 1539 113 1496 113 q 1613 143 1582 113 q 1643 217 1643 174 q 1613 290 1643 260 q 1539 321 1583 320 z "},"Â":{"ha":986,"x_min":9,"x_max":977,"o":"m 660 161 l 328 161 l 264 0 l 9 0 l 366 926 l 628 926 l 977 0 l 720 0 l 660 161 m 595 345 l 495 640 l 394 345 l 595 345 m 210 1105 l 493 1272 l 776 1105 l 709 1000 l 493 1109 l 277 1000 l 210 1105 z "},"Ê":{"ha":680,"x_min":78,"x_max":644,"o":"m 624 722 l 338 722 l 338 568 l 608 568 l 608 364 l 338 364 l 338 203 l 624 203 l 624 0 l 97 0 l 97 926 l 624 926 l 624 722 m 78 1105 l 361 1272 l 644 1105 l 577 1000 l 361 1109 l 144 1000 l 78 1105 z "},"Á":{"ha":986,"x_min":9,"x_max":977,"o":"m 660 161 l 328 161 l 264 0 l 9 0 l 366 926 l 628 926 l 977 0 l 720 0 l 660 161 m 595 345 l 495 640 l 394 345 l 595 345 m 723 1161 l 487 1000 l 393 1087 l 594 1278 l 723 1161 z "},"Ë":{"ha":680,"x_min":79,"x_max":653,"o":"m 624 722 l 338 722 l 338 568 l 608 568 l 608 364 l 338 364 l 338 203 l 624 203 l 624 0 l 97 0 l 97 926 l 624 926 l 624 722 m 199 1255 q 284 1219 249 1255 q 319 1135 319 1184 q 284 1049 319 1084 q 199 1014 249 1014 q 114 1049 149 1014 q 79 1136 79 1085 q 114 1219 79 1185 q 199 1255 149 1254 m 532 1255 q 618 1219 583 1255 q 653 1135 653 1184 q 618 1049 653 1084 q 533 1014 583 1014 q 447 1049 482 1014 q 412 1136 412 1085 q 448 1219 412 1185 q 532 1255 483 1254 z "},"È":{"ha":680,"x_min":97,"x_max":624,"o":"m 624 722 l 338 722 l 338 568 l 608 568 l 608 364 l 338 364 l 338 203 l 624 203 l 624 0 l 97 0 l 97 926 l 624 926 l 624 722 m 165 1161 l 294 1278 l 495 1087 l 401 1000 l 165 1161 z "},"Í":{"ha":435,"x_min":97,"x_max":442,"o":"m 338 926 l 338 0 l 97 0 l 97 926 l 338 926 m 442 1161 l 206 1000 l 113 1087 l 313 1278 l 442 1161 z "},"Î":{"ha":435,"x_min":-47,"x_max":481,"o":"m 338 926 l 338 0 l 97 0 l 97 926 l 338 926 m -47 1105 l 218 1272 l 481 1105 l 415 1000 l 218 1109 l 20 1000 l -47 1105 z "},"Ï":{"ha":435,"x_min":-46,"x_max":481,"o":"m 338 926 l 338 0 l 98 0 l 98 926 l 338 926 m 74 1255 q 159 1219 124 1255 q 195 1135 195 1184 q 159 1049 195 1084 q 75 1014 124 1014 q -11 1049 24 1014 q -46 1136 -46 1085 q -11 1219 -46 1185 q 74 1255 24 1254 m 361 1255 q 446 1219 411 1255 q 481 1135 481 1184 q 446 1049 481 1084 q 361 1014 411 1014 q 276 1049 311 1014 q 241 1136 241 1085 q 276 1219 241 1185 q 361 1255 311 1254 z "},"Ì":{"ha":435,"x_min":-7,"x_max":338,"o":"m 338 926 l 338 0 l 97 0 l 97 926 l 338 926 m -7 1161 l 121 1278 l 322 1087 l 229 1000 l -7 1161 z "},"Ó":{"ha":1136,"x_min":56,"x_max":1080,"o":"m 568 954 q 947 798 800 954 q 1080 460 1080 658 q 1013 210 1080 325 q 814 22 941 87 q 564 -33 705 -33 q 189 121 335 -33 q 56 469 56 262 q 123 710 56 598 q 568 954 266 949 m 568 720 q 385 644 460 720 q 308 463 308 567 q 385 276 308 353 q 568 200 460 200 q 753 276 676 200 q 829 460 829 353 q 753 644 829 570 q 568 720 676 719 m 788 1161 l 552 1000 l 458 1087 l 659 1278 l 788 1161 z "},"Ô":{"ha":1136,"x_min":56,"x_max":1080,"o":"m 568 954 q 947 798 800 954 q 1080 460 1080 658 q 1013 210 1080 325 q 814 22 941 87 q 564 -33 705 -33 q 189 121 335 -33 q 56 469 56 262 q 123 710 56 598 q 568 954 266 949 m 568 720 q 385 644 460 720 q 308 463 308 567 q 385 276 308 353 q 568 200 460 200 q 753 276 676 200 q 829 460 829 353 q 753 644 829 570 q 568 720 676 719 m 286 1105 l 568 1272 l 851 1105 l 785 1000 l 568 1109 l 352 1000 l 286 1105 z "},"Ò":{"ha":1136,"x_min":56,"x_max":1080,"o":"m 568 954 q 947 798 800 954 q 1080 460 1080 658 q 1013 210 1080 325 q 814 22 941 87 q 564 -33 705 -33 q 189 121 335 -33 q 56 469 56 262 q 123 710 56 598 q 568 954 266 949 m 568 720 q 385 644 460 720 q 308 463 308 567 q 385 276 308 353 q 568 200 460 200 q 753 276 676 200 q 829 460 829 353 q 753 644 829 570 q 568 720 676 719 m 357 1161 l 486 1278 l 686 1087 l 593 1000 l 357 1161 z "},"Ú":{"ha":1002,"x_min":97,"x_max":905,"o":"m 338 926 l 338 425 q 342 317 338 345 q 364 259 347 288 q 498 189 406 189 q 582 209 544 189 q 640 264 621 229 q 659 321 654 291 q 664 425 664 352 l 664 926 l 905 926 l 905 392 q 869 188 905 259 q 709 24 816 79 q 495 -24 617 -24 q 253 37 356 -24 q 132 167 167 87 q 97 392 97 247 l 97 926 l 338 926 m 730 1161 l 494 1000 l 401 1087 l 602 1278 l 730 1161 z "},"Û":{"ha":1002,"x_min":97,"x_max":905,"o":"m 338 926 l 338 425 q 342 317 338 345 q 364 259 347 288 q 498 189 406 189 q 582 209 544 189 q 640 264 621 229 q 659 321 654 291 q 664 425 664 352 l 664 926 l 905 926 l 905 392 q 869 188 905 259 q 709 24 816 79 q 495 -24 617 -24 q 253 37 356 -24 q 132 167 167 87 q 97 392 97 247 l 97 926 l 338 926 m 218 1105 l 501 1272 l 784 1105 l 718 1000 l 501 1109 l 285 1000 l 218 1105 z "},"Ù":{"ha":1002,"x_min":97,"x_max":905,"o":"m 338 926 l 338 425 q 342 317 338 345 q 364 259 347 288 q 498 189 406 189 q 582 209 544 189 q 640 264 621 229 q 659 321 654 291 q 664 425 664 352 l 664 926 l 905 926 l 905 392 q 869 188 905 259 q 709 24 816 79 q 495 -24 617 -24 q 253 37 356 -24 q 132 167 167 87 q 97 392 97 247 l 97 926 l 338 926 m 271 1161 l 400 1278 l 601 1087 l 507 1000 l 271 1161 z "},"ı":{"ha":374,"x_min":76,"x_max":298,"o":"m 298 629 l 298 0 l 76 0 l 76 629 l 298 629 z "},"ˆ":{"ha":694,"x_min":74,"x_max":621,"o":"m 74 829 l 345 1034 l 621 829 l 522 722 l 345 859 l 168 722 l 74 829 z "},"˜":{"ha":694,"x_min":100,"x_max":595,"o":"m 206 729 l 100 729 q 107 800 100 770 q 157 891 121 860 q 236 922 193 922 q 274 918 257 922 q 358 889 292 913 q 439 869 414 869 q 468 879 459 869 q 485 922 476 888 l 595 922 q 571 813 587 851 q 454 729 538 729 q 393 737 424 729 q 283 775 363 745 q 250 781 267 781 q 221 771 229 781 q 206 729 212 761 z "},"¯":{"ha":694,"x_min":104,"x_max":591,"o":"m 104 886 l 591 886 l 591 750 l 104 750 l 104 886 z "},"˘":{"ha":694,"x_min":104,"x_max":590,"o":"m 104 964 l 246 964 q 275 884 255 906 q 338 862 294 862 q 414 883 392 862 q 448 964 437 903 l 590 964 q 581 888 588 916 q 555 832 573 861 q 347 731 490 731 q 140 832 204 731 q 114 888 121 861 q 104 964 106 916 z "},"˙":{"ha":694,"x_min":221,"x_max":474,"o":"m 348 980 q 437 943 400 980 q 474 854 474 906 q 437 764 474 801 q 348 727 400 727 q 258 764 295 727 q 221 855 221 802 q 258 943 221 907 q 348 980 295 979 z "},"˚":{"ha":694,"x_min":157,"x_max":538,"o":"m 342 1015 l 352 1015 q 498 967 449 1015 q 538 871 538 930 q 498 774 538 811 q 352 727 448 727 l 342 727 q 197 774 247 727 q 157 872 157 811 q 197 967 157 930 q 342 1015 246 1015 m 346 926 q 293 911 313 926 q 273 871 273 897 q 293 830 273 846 q 347 815 313 815 q 402 830 382 815 q 422 871 422 845 q 402 912 422 897 q 346 926 382 926 z "},"¸":{"ha":694,"x_min":258,"x_max":548,"o":"m 548 -153 l 359 -332 l 258 -269 l 421 -70 l 548 -153 z "},"˝":{"ha":694,"x_min":145,"x_max":670,"o":"m 420 911 l 230 722 l 145 798 l 304 1013 l 420 911 m 670 911 l 480 722 l 395 798 l 553 1013 l 670 911 z "},"˛":{"ha":694,"x_min":249,"x_max":500,"o":"m 355 0 l 456 0 q 377 -96 377 -52 q 393 -134 377 -118 q 431 -149 409 -149 q 500 -123 457 -149 l 471 -243 q 372 -269 429 -269 q 285 -236 321 -269 q 249 -157 249 -203 q 355 0 249 -67 z "},"ˇ":{"ha":694,"x_min":74,"x_max":621,"o":"m 74 926 l 168 1034 l 345 897 l 522 1034 l 621 926 l 345 722 l 74 926 z "},"Ł":{"ha":667,"x_min":14,"x_max":640,"o":"m 349 926 l 349 612 l 509 722 l 509 544 l 349 434 l 349 203 l 640 203 l 640 0 l 108 0 l 108 319 l 14 248 l 14 426 l 108 496 l 108 926 l 349 926 z "},"ł":{"ha":463,"x_min":14,"x_max":449,"o":"m 342 1019 l 342 623 l 449 696 l 449 517 l 342 448 l 342 0 l 120 0 l 120 341 l 14 267 l 14 445 l 120 515 l 120 1019 l 342 1019 z "},"Š":{"ha":793,"x_min":56,"x_max":739,"o":"m 701 873 l 605 686 q 448 748 528 748 q 368 720 397 748 q 345 669 345 696 q 402 599 345 627 q 511 564 418 591 q 685 467 632 528 q 739 307 739 407 q 619 44 739 127 q 378 -24 522 -24 q 56 81 206 -24 l 159 275 q 371 180 267 180 q 464 214 435 180 q 487 271 487 240 q 457 331 487 309 q 342 378 427 353 q 166 452 210 416 q 92 636 92 513 q 188 868 92 781 q 408 948 275 948 q 701 873 559 948 m 689 1167 l 406 1000 l 123 1167 l 190 1272 l 406 1164 l 623 1272 l 689 1167 z "},"š":{"ha":625,"x_min":37,"x_max":614,"o":"m 570 611 l 494 467 q 373 498 431 498 q 324 485 343 498 q 305 453 305 473 q 340 415 305 428 q 405 399 351 411 q 524 351 483 384 q 588 213 588 301 q 496 32 588 97 q 289 -24 416 -24 q 37 49 161 -24 l 118 206 q 295 142 214 142 q 345 156 326 142 q 365 191 365 170 q 347 225 365 214 q 270 249 329 237 q 151 292 190 266 q 85 424 85 336 q 155 586 85 522 q 366 652 228 652 q 570 611 471 652 m 67 926 l 161 1034 l 338 897 l 515 1034 l 614 926 l 338 722 l 67 926 z "},"Ž":{"ha":877,"x_min":18,"x_max":858,"o":"m 422 203 l 810 203 l 810 0 l 18 0 l 456 722 l 92 722 l 92 926 l 858 926 l 422 203 m 767 1167 l 466 1000 l 165 1167 l 231 1272 l 466 1164 l 701 1272 l 767 1167 z "},"ž":{"ha":724,"x_min":28,"x_max":696,"o":"m 401 185 l 666 185 l 666 0 l 28 0 l 325 444 l 68 444 l 68 629 l 696 629 l 401 185 m 98 926 l 192 1034 l 369 897 l 546 1034 l 644 926 l 369 722 l 98 926 z "},"¦":{"ha":694,"x_min":215,"x_max":480,"o":"m 215 926 l 480 926 l 480 424 l 215 424 l 215 926 m 215 213 l 480 213 l 480 -231 l 215 -231 l 215 213 z "},"Ð":{"ha":965,"x_min":14,"x_max":909,"o":"m 97 0 l 97 398 l 14 398 l 14 555 l 97 555 l 97 926 l 452 926 q 757 803 626 926 q 871 640 831 734 q 909 463 909 553 q 834 215 909 332 q 639 42 760 99 q 452 0 549 0 l 97 0 m 338 203 l 393 203 q 507 222 460 203 q 590 281 554 240 q 657 463 657 356 q 590 645 657 570 q 507 704 554 686 q 393 722 460 722 l 338 722 l 338 555 l 495 555 l 495 398 l 338 398 l 338 203 z "},"ð":{"ha":859,"x_min":51,"x_max":808,"o":"m 549 1019 l 620 904 l 524 844 q 672 688 614 766 q 808 329 808 509 q 707 78 808 173 q 431 -22 601 -22 q 170 62 275 -22 q 51 316 51 157 q 129 531 51 444 q 430 652 233 648 q 353 736 393 699 l 231 658 l 163 769 l 246 823 q 163 871 215 844 l 251 1023 q 410 930 347 980 l 549 1019 m 429 461 q 328 419 370 461 q 286 318 286 376 q 328 214 286 256 q 430 171 370 171 q 531 214 489 171 q 573 316 573 256 q 532 418 573 376 q 429 461 490 460 z "},"Ý":{"ha":889,"x_min":-17,"x_max":905,"o":"m 318 445 l -17 926 l 271 926 l 446 673 l 614 926 l 905 926 l 559 445 l 559 0 l 318 0 l 318 445 m 683 1161 l 447 1000 l 353 1087 l 554 1278 l 683 1161 z "},"ý":{"ha":845,"x_min":0,"x_max":845,"o":"m 304 86 l 0 629 l 258 629 l 427 307 l 590 629 l 845 629 l 340 -315 l 90 -315 l 304 86 m 646 911 l 432 722 l 329 798 l 505 1013 l 646 911 z "},"Þ":{"ha":832,"x_min":97,"x_max":802,"o":"m 338 178 l 338 0 l 97 0 l 97 926 l 338 926 l 338 796 l 480 796 q 614 779 562 796 q 711 719 666 761 q 802 489 802 633 q 727 264 802 348 q 488 178 651 178 l 338 178 m 338 371 l 418 371 q 516 397 488 371 q 550 486 550 429 q 518 574 550 545 q 418 603 486 603 l 338 603 l 338 371 z "},"þ":{"ha":861,"x_min":76,"x_max":810,"o":"m 298 -315 l 76 -315 l 76 1019 l 298 1019 l 298 560 q 493 651 371 651 q 644 610 572 651 q 768 488 724 565 q 810 313 810 412 q 699 58 810 153 q 496 -21 608 -21 q 298 62 378 -21 l 298 -315 m 435 459 q 334 416 377 459 q 292 315 292 375 q 334 214 292 256 q 436 170 378 170 q 537 214 494 170 q 579 313 579 256 q 537 416 579 375 q 435 459 494 458 z "},"−":{"ha":833,"x_min":88,"x_max":745,"o":"m 88 542 l 745 542 l 745 385 l 88 385 l 88 542 z "},"×":{"ha":833,"x_min":129,"x_max":705,"o":"m 240 751 l 417 574 l 594 751 l 705 640 l 528 463 l 705 286 l 594 175 l 417 352 l 240 175 l 129 286 l 306 463 l 129 640 l 240 751 z "},"¹":{"ha":555,"x_min":142,"x_max":371,"o":"m 220 796 l 142 796 l 142 926 l 371 926 l 371 370 l 220 370 l 220 796 z "},"²":{"ha":555,"x_min":43,"x_max":497,"o":"m 326 500 l 497 500 l 497 370 l 43 370 l 189 524 q 335 753 335 675 q 318 799 335 780 q 276 819 300 819 q 237 801 252 819 q 222 756 222 784 q 225 729 222 747 l 59 729 q 69 799 59 767 q 149 913 92 876 q 275 949 201 949 q 433 890 373 949 q 491 747 491 833 q 409 577 491 654 l 326 500 z "},"³":{"ha":555,"x_min":49,"x_max":495,"o":"m 246 608 l 246 716 q 267 715 260 715 q 307 730 292 715 q 322 770 322 745 q 308 806 322 792 q 271 820 294 820 q 218 758 219 820 l 77 758 q 106 854 84 817 q 177 922 132 899 q 283 946 225 946 q 416 901 366 946 q 464 784 464 857 q 412 672 464 708 q 472 619 449 659 q 495 532 495 580 q 416 385 495 436 q 277 347 357 347 q 78 456 142 347 q 49 555 50 504 l 203 555 q 277 479 207 479 q 326 498 307 479 q 346 545 346 517 q 325 594 346 574 q 275 614 304 614 q 246 608 265 614 z "},"½":{"ha":1352,"x_min":141,"x_max":1292,"o":"m 219 796 l 141 796 l 141 926 l 370 926 l 370 370 l 219 370 l 219 796 m 884 926 l 1004 926 l 467 0 l 347 0 l 884 926 m 1120 130 l 1292 130 l 1292 0 l 838 0 l 984 153 q 1094 287 1059 231 q 1130 382 1130 342 q 1113 428 1130 409 q 1071 448 1095 448 q 1032 430 1047 448 q 1017 385 1017 413 q 1020 358 1017 377 l 854 358 q 864 429 854 396 q 943 543 887 505 q 1070 578 996 578 q 1227 519 1168 578 q 1286 376 1286 462 q 1204 207 1286 283 l 1120 130 z "},"¼":{"ha":1352,"x_min":141,"x_max":1304,"o":"m 219 796 l 141 796 l 141 926 l 370 926 l 370 370 l 219 370 l 219 796 m 884 926 l 1004 926 l 467 0 l 347 0 l 884 926 m 1238 231 l 1304 231 l 1304 112 l 1238 112 l 1238 0 l 1097 0 l 1097 112 l 832 112 l 832 210 l 1044 555 l 1238 555 l 1238 231 m 1097 231 l 1097 420 l 981 231 l 1097 231 z "},"¾":{"ha":1352,"x_min":49,"x_max":1305,"o":"m 246 608 l 246 716 q 267 715 260 715 q 307 730 292 715 q 322 770 322 745 q 308 806 322 792 q 271 820 294 820 q 218 758 219 820 l 77 758 q 106 854 84 817 q 177 922 132 899 q 283 946 225 946 q 416 901 366 946 q 464 784 464 857 q 412 672 464 708 q 472 619 449 658 q 495 532 495 580 q 416 385 495 435 q 277 347 357 347 q 78 456 142 347 q 49 555 50 504 l 203 555 q 277 479 207 479 q 326 497 307 479 q 346 545 346 516 q 325 594 346 574 q 275 614 304 614 q 246 608 264 614 m 884 926 l 1004 926 l 467 0 l 347 0 l 884 926 m 1238 231 l 1305 231 l 1305 112 l 1238 112 l 1238 0 l 1097 0 l 1097 112 l 832 112 l 832 210 l 1044 555 l 1238 555 l 1238 231 m 1097 231 l 1097 420 l 981 231 l 1097 231 z "}," ":{"ha":347,"x_min":0,"x_max":0,"o":""},"­":{"ha":352,"x_min":0,"x_max":352,"o":"m 0 421 l 352 421 l 352 236 l 0 236 l 0 421 z "},"·":{"ha":421,"x_min":67,"x_max":354,"o":"m 210 472 q 312 430 270 472 q 354 329 354 388 q 312 227 354 269 q 211 185 270 185 q 109 227 151 185 q 67 330 67 270 q 109 430 67 389 q 210 472 151 471 z "}}}
